<?xml version="1.0" encoding="UTF-8" standalone="no"?>
<!DOCTYPE svg PUBLIC "-//W3C//DTD SVG 1.1//EN"
 "http://www.w3.org/Graphics/SVG/1.1/DTD/svg11.dtd">
<!-- Generated by graphviz version 2.43.0 (0)
 -->
<!-- Title: G Pages: 1 -->
<svg width="2717pt" height="761pt"
 viewBox="0.00 0.00 2717.43 761.00" xmlns="http://www.w3.org/2000/svg" xmlns:xlink="http://www.w3.org/1999/xlink">
<g id="graph0" class="graph" transform="scale(1 1) rotate(0) translate(4 757)">
<title>G</title>
<polygon fill="white" stroke="transparent" points="-4,4 -4,-757 2713.43,-757 2713.43,4 -4,4"/>
<g id="clust1" class="cluster">
<title>cluster_G</title>
<path fill="#808080" fill-opacity="0.094118" stroke="black" d="M20,-8C20,-8 2689.43,-8 2689.43,-8 2695.43,-8 2701.43,-14 2701.43,-20 2701.43,-20 2701.43,-733 2701.43,-733 2701.43,-739 2695.43,-745 2689.43,-745 2689.43,-745 20,-745 20,-745 14,-745 8,-739 8,-733 8,-733 8,-20 8,-20 8,-14 14,-8 20,-8"/>
</g>
<g id="clust2" class="cluster">
<title>cluster_coreransaccuda</title>
<path fill="#808080" fill-opacity="0.094118" stroke="black" d="M28,-428C28,-428 2508.89,-428 2508.89,-428 2514.89,-428 2520.89,-434 2520.89,-440 2520.89,-440 2520.89,-725 2520.89,-725 2520.89,-731 2514.89,-737 2508.89,-737 2508.89,-737 28,-737 28,-737 22,-737 16,-731 16,-725 16,-725 16,-440 16,-440 16,-434 22,-428 28,-428"/>
<text text-anchor="middle" x="1268.45" y="-721.8" font-family="Times,serif" font-size="14.00">coreransaccuda</text>
</g>
<g id="clust3" class="cluster">
<title>cluster_crs</title>
<path fill="#808080" fill-opacity="0.094118" stroke="black" d="M315.79,-82C315.79,-82 2681.43,-82 2681.43,-82 2687.43,-82 2693.43,-88 2693.43,-94 2693.43,-94 2693.43,-307 2693.43,-307 2693.43,-313 2687.43,-319 2681.43,-319 2681.43,-319 315.79,-319 315.79,-319 309.79,-319 303.79,-313 303.79,-307 303.79,-307 303.79,-94 303.79,-94 303.79,-88 309.79,-82 315.79,-82"/>
<text text-anchor="middle" x="1498.61" y="-303.8" font-family="Times,serif" font-size="14.00">crs</text>
</g>
<g id="clust4" class="cluster">
<title>cluster_crsu</title>
<path fill="#808080" fill-opacity="0.094118" stroke="black" d="M1292.24,-327C1292.24,-327 1589.71,-327 1589.71,-327 1595.71,-327 1601.71,-333 1601.71,-339 1601.71,-339 1601.71,-408 1601.71,-408 1601.71,-414 1595.71,-420 1589.71,-420 1589.71,-420 1292.24,-420 1292.24,-420 1286.24,-420 1280.24,-414 1280.24,-408 1280.24,-408 1280.24,-339 1280.24,-339 1280.24,-333 1286.24,-327 1292.24,-327"/>
<text text-anchor="middle" x="1440.98" y="-404.8" font-family="Times,serif" font-size="14.00">crsu</text>
</g>
<!-- coreransaccuda -->
<g id="node1" class="node">
<title>coreransaccuda</title>
<ellipse fill="#ffffff" fill-opacity="0.698039" stroke="black" cx="516.15" cy="-44" rx="83.39" ry="18"/>
<text text-anchor="middle" x="516.15" y="-40.3" font-family="Times,serif" font-size="14.00" fill="#000000">coreransaccuda</text>
</g>
<!-- crs -->
<g id="node2" class="node">
<title>crs</title>
<ellipse fill="#ffffff" fill-opacity="0.698039" stroke="black" cx="1440.98" cy="-34" rx="27" ry="18"/>
<text text-anchor="middle" x="1440.98" y="-30.3" font-family="Times,serif" font-size="14.00" fill="#000000">crs</text>
</g>
<!-- coreransaccuda&#45;&gt;crs -->
<g id="edge1" class="edge">
<title>coreransaccuda&#45;&gt;crs</title>
<path fill="none" stroke="#000000" d="M599.45,-43.11C792.57,-41.02 1268.67,-35.86 1403.73,-34.39"/>
<polygon fill="#000000" stroke="#000000" points="1403.98,-37.89 1413.94,-34.28 1403.91,-30.89 1403.98,-37.89"/>
</g>
<!-- crsu -->
<g id="node3" class="node">
<title>crsu</title>
<ellipse fill="#ffffff" fill-opacity="0.698039" stroke="black" cx="2279.55" cy="-44" rx="30.59" ry="18"/>
<text text-anchor="middle" x="2279.55" y="-40.3" font-family="Times,serif" font-size="14.00" fill="#000000">crsu</text>
</g>
<!-- coreransaccuda&#45;&gt;crsu -->
<g id="edge2" class="edge">
<title>coreransaccuda&#45;&gt;crsu</title>
<path fill="none" stroke="#000000" d="M597.95,-47.42C701.38,-51.6 886.13,-58.45 1044.29,-61 1396.86,-66.68 1485.12,-67.79 1837.67,-61 1985.6,-58.15 2161.3,-49.92 2238.64,-46.05"/>
<polygon fill="#000000" stroke="#000000" points="2239.07,-49.54 2248.89,-45.54 2238.72,-42.55 2239.07,-49.54"/>
</g>
<!-- crs&#45;&gt;crsu -->
<g id="edge8" class="edge">
<title>crs&#45;&gt;crsu</title>
<path fill="none" stroke="#000000" d="M1468.4,-34.32C1589.51,-35.76 2092.03,-41.77 2238.39,-43.52"/>
<polygon fill="#000000" stroke="#000000" points="2238.65,-47.02 2248.69,-43.64 2238.73,-40.02 2238.65,-47.02"/>
</g>
<!-- coreransaccuda__get_how_many_and_which_below_threshold_between_plane_and_points_and_their_indices_cuda -->
<g id="node4" class="node">
<title>coreransaccuda__get_how_many_and_which_below_threshold_between_plane_and_points_and_their_indices_cuda</title>
<ellipse fill="#fecccc" fill-opacity="0.698039" stroke="black" cx="516.15" cy="-679" rx="492.29" ry="26.74"/>
<text text-anchor="middle" x="516.15" y="-682.8" font-family="Times,serif" font-size="14.00" fill="#000000">get_how_many_and_which_below_threshold_between_plane_and_points_and_their_indices_cuda</text>
<text text-anchor="middle" x="516.15" y="-667.8" font-family="Times,serif" font-size="14.00" fill="#000000">(coreransaccuda.py:201)</text>
</g>
<!-- coreransaccuda__get_how_many_and_which_below_threshold_kernel -->
<g id="node5" class="node">
<title>coreransaccuda__get_how_many_and_which_below_threshold_kernel</title>
<ellipse fill="#fecccc" fill-opacity="0.698039" stroke="black" cx="1440.98" cy="-679" rx="267.99" ry="26.74"/>
<text text-anchor="middle" x="1440.98" y="-682.8" font-family="Times,serif" font-size="14.00" fill="#000000">get_how_many_and_which_below_threshold_kernel</text>
<text text-anchor="middle" x="1440.98" y="-667.8" font-family="Times,serif" font-size="14.00" fill="#000000">(coreransaccuda.py:13)</text>
</g>
<!-- coreransaccuda__get_how_many_and_which_below_threshold_between_plane_and_points_and_their_indices_cuda&#45;&gt;coreransaccuda__get_how_many_and_which_below_threshold_kernel -->
<g id="edge4" class="edge">
<title>coreransaccuda__get_how_many_and_which_below_threshold_between_plane_and_points_and_their_indices_cuda&#45;&gt;coreransaccuda__get_how_many_and_which_below_threshold_kernel</title>
<path fill="none" stroke="#000000" d="M1008.62,-679C1061.45,-679 1113.74,-679 1162.73,-679"/>
<polygon fill="#000000" stroke="#000000" points="1162.81,-682.5 1172.81,-679 1162.81,-675.5 1162.81,-682.5"/>
</g>
<!-- coreransaccuda__get_how_many_below_threshold_between_line_and_points_cuda -->
<g id="node6" class="node">
<title>coreransaccuda__get_how_many_below_threshold_between_line_and_points_cuda</title>
<ellipse fill="#fecccc" fill-opacity="0.698039" stroke="black" cx="1440.98" cy="-535" rx="332.18" ry="26.74"/>
<text text-anchor="middle" x="1440.98" y="-538.8" font-family="Times,serif" font-size="14.00" fill="#000000">get_how_many_below_threshold_between_line_and_points_cuda</text>
<text text-anchor="middle" x="1440.98" y="-523.8" font-family="Times,serif" font-size="14.00" fill="#000000">(coreransaccuda.py:154)</text>
</g>
<!-- coreransaccuda__get_how_many_line_below_threshold_kernel -->
<g id="node9" class="node">
<title>coreransaccuda__get_how_many_line_below_threshold_kernel</title>
<ellipse fill="#fecccc" fill-opacity="0.698039" stroke="black" cx="2279.55" cy="-535" rx="233.19" ry="26.74"/>
<text text-anchor="middle" x="2279.55" y="-538.8" font-family="Times,serif" font-size="14.00" fill="#000000">get_how_many_line_below_threshold_kernel</text>
<text text-anchor="middle" x="2279.55" y="-523.8" font-family="Times,serif" font-size="14.00" fill="#000000">(coreransaccuda.py:77)</text>
</g>
<!-- coreransaccuda__get_how_many_below_threshold_between_line_and_points_cuda&#45;&gt;coreransaccuda__get_how_many_line_below_threshold_kernel -->
<g id="edge3" class="edge">
<title>coreransaccuda__get_how_many_below_threshold_between_line_and_points_cuda&#45;&gt;coreransaccuda__get_how_many_line_below_threshold_kernel</title>
<path fill="none" stroke="#000000" d="M1773.51,-535C1861.12,-535 1954.04,-535 2035.97,-535"/>
<polygon fill="#000000" stroke="#000000" points="2036.16,-538.5 2046.16,-535 2036.16,-531.5 2036.16,-538.5"/>
</g>
<!-- coreransaccuda__get_how_many_below_threshold_between_plane_and_points_cuda -->
<g id="node7" class="node">
<title>coreransaccuda__get_how_many_below_threshold_between_plane_and_points_cuda</title>
<ellipse fill="#fecccc" fill-opacity="0.698039" stroke="black" cx="516.15" cy="-607" rx="341.57" ry="26.74"/>
<text text-anchor="middle" x="516.15" y="-610.8" font-family="Times,serif" font-size="14.00" fill="#000000">get_how_many_below_threshold_between_plane_and_points_cuda</text>
<text text-anchor="middle" x="516.15" y="-595.8" font-family="Times,serif" font-size="14.00" fill="#000000">(coreransaccuda.py:259)</text>
</g>
<!-- coreransaccuda__get_how_many_below_threshold_kernel -->
<g id="node8" class="node">
<title>coreransaccuda__get_how_many_below_threshold_kernel</title>
<ellipse fill="#fecccc" fill-opacity="0.698039" stroke="black" cx="1440.98" cy="-607" rx="210.02" ry="26.74"/>
<text text-anchor="middle" x="1440.98" y="-610.8" font-family="Times,serif" font-size="14.00" fill="#000000">get_how_many_below_threshold_kernel</text>
<text text-anchor="middle" x="1440.98" y="-595.8" font-family="Times,serif" font-size="14.00" fill="#000000">(coreransaccuda.py:45)</text>
</g>
<!-- coreransaccuda__get_how_many_below_threshold_between_plane_and_points_cuda&#45;&gt;coreransaccuda__get_how_many_below_threshold_kernel -->
<g id="edge5" class="edge">
<title>coreransaccuda__get_how_many_below_threshold_between_plane_and_points_cuda&#45;&gt;coreransaccuda__get_how_many_below_threshold_kernel</title>
<path fill="none" stroke="#000000" d="M857.83,-607C979.09,-607 1112.33,-607 1220.7,-607"/>
<polygon fill="#000000" stroke="#000000" points="1220.77,-610.5 1230.77,-607 1220.77,-603.5 1220.77,-610.5"/>
</g>
<!-- coreransaccuda__get_ransac_iteration_results_cuda -->
<g id="node10" class="node">
<title>coreransaccuda__get_ransac_iteration_results_cuda</title>
<ellipse fill="#fecccc" fill-opacity="0.698039" stroke="black" cx="1440.98" cy="-463" rx="183.28" ry="26.74"/>
<text text-anchor="middle" x="1440.98" y="-466.8" font-family="Times,serif" font-size="14.00" fill="#000000">get_ransac_iteration_results_cuda</text>
<text text-anchor="middle" x="1440.98" y="-451.8" font-family="Times,serif" font-size="14.00" fill="#000000">(coreransaccuda.py:357)</text>
</g>
<!-- coreransaccuda__get_ransac_line_iteration_results_cuda -->
<g id="node11" class="node">
<title>coreransaccuda__get_ransac_line_iteration_results_cuda</title>
<ellipse fill="#fecccc" fill-opacity="0.698039" stroke="black" cx="516.15" cy="-535" rx="206.45" ry="26.74"/>
<text text-anchor="middle" x="516.15" y="-538.8" font-family="Times,serif" font-size="14.00" fill="#000000">get_ransac_line_iteration_results_cuda</text>
<text text-anchor="middle" x="516.15" y="-523.8" font-family="Times,serif" font-size="14.00" fill="#000000">(coreransaccuda.py:312)</text>
</g>
<!-- coreransaccuda__get_ransac_line_iteration_results_cuda&#45;&gt;coreransaccuda__get_how_many_below_threshold_between_line_and_points_cuda -->
<g id="edge6" class="edge">
<title>coreransaccuda__get_ransac_line_iteration_results_cuda&#45;&gt;coreransaccuda__get_how_many_below_threshold_between_line_and_points_cuda</title>
<path fill="none" stroke="#000000" d="M722.81,-535C833.23,-535 972.2,-535 1098.34,-535"/>
<polygon fill="#000000" stroke="#000000" points="1098.56,-538.5 1108.56,-535 1098.56,-531.5 1098.56,-538.5"/>
</g>
<!-- coreransaccuda__get_ransac_results_cuda -->
<g id="node12" class="node">
<title>coreransaccuda__get_ransac_results_cuda</title>
<ellipse fill="#fecccc" fill-opacity="0.698039" stroke="black" cx="516.15" cy="-463" rx="135.53" ry="26.74"/>
<text text-anchor="middle" x="516.15" y="-466.8" font-family="Times,serif" font-size="14.00" fill="#000000">get_ransac_results_cuda</text>
<text text-anchor="middle" x="516.15" y="-451.8" font-family="Times,serif" font-size="14.00" fill="#000000">(coreransaccuda.py:403)</text>
</g>
<!-- coreransaccuda__get_ransac_results_cuda&#45;&gt;coreransaccuda__get_ransac_iteration_results_cuda -->
<g id="edge7" class="edge">
<title>coreransaccuda__get_ransac_results_cuda&#45;&gt;coreransaccuda__get_ransac_iteration_results_cuda</title>
<path fill="none" stroke="#000000" d="M652.32,-463C809.31,-463 1069.44,-463 1247.5,-463"/>
<polygon fill="#000000" stroke="#000000" points="1247.51,-466.5 1257.51,-463 1247.51,-459.5 1247.51,-466.5"/>
</g>
<!-- crs__get_best_fitting_data_from_list_planes -->
<g id="node13" class="node">
<title>crs__get_best_fitting_data_from_list_planes</title>
<ellipse fill="#e5fecc" fill-opacity="0.698039" stroke="black" cx="516.15" cy="-117" rx="204.21" ry="26.74"/>
<text text-anchor="middle" x="516.15" y="-120.8" font-family="Times,serif" font-size="14.00" fill="#000000">get_best_fitting_data_from_list_planes</text>
<text text-anchor="middle" x="516.15" y="-105.8" font-family="Times,serif" font-size="14.00" fill="#000000">(crs.py:446)</text>
</g>
<!-- crs__get_fitting_data_from_list_planes -->
<g id="node14" class="node">
<title>crs__get_fitting_data_from_list_planes</title>
<ellipse fill="#e5fecc" fill-opacity="0.698039" stroke="black" cx="1440.98" cy="-117" rx="177.47" ry="26.74"/>
<text text-anchor="middle" x="1440.98" y="-120.8" font-family="Times,serif" font-size="14.00" fill="#000000">get_fitting_data_from_list_planes</text>
<text text-anchor="middle" x="1440.98" y="-105.8" font-family="Times,serif" font-size="14.00" fill="#000000">(crs.py:399)</text>
</g>
<!-- crs__get_best_fitting_data_from_list_planes&#45;&gt;crs__get_fitting_data_from_list_planes -->
<g id="edge14" class="edge">
<title>crs__get_best_fitting_data_from_list_planes&#45;&gt;crs__get_fitting_data_from_list_planes</title>
<path fill="none" stroke="#000000" d="M720.52,-117C879.44,-117 1098.54,-117 1253.09,-117"/>
<polygon fill="#000000" stroke="#000000" points="1253.17,-120.5 1263.17,-117 1253.17,-113.5 1253.17,-120.5"/>
</g>
<!-- crs__get_how_many_below_threshold_between_plane_and_points_and_their_indices -->
<g id="node16" class="node">
<title>crs__get_how_many_below_threshold_between_plane_and_points_and_their_indices</title>
<ellipse fill="#e5fecc" fill-opacity="0.698039" stroke="black" cx="2279.55" cy="-189" rx="405.76" ry="26.74"/>
<text text-anchor="middle" x="2279.55" y="-192.8" font-family="Times,serif" font-size="14.00" fill="#000000">get_how_many_below_threshold_between_plane_and_points_and_their_indices</text>
<text text-anchor="middle" x="2279.55" y="-177.8" font-family="Times,serif" font-size="14.00" fill="#000000">(crs.py:180)</text>
</g>
<!-- crs__get_fitting_data_from_list_planes&#45;&gt;crs__get_how_many_below_threshold_between_plane_and_points_and_their_indices -->
<g id="edge13" class="edge">
<title>crs__get_fitting_data_from_list_planes&#45;&gt;crs__get_how_many_below_threshold_between_plane_and_points_and_their_indices</title>
<path fill="none" stroke="#000000" d="M1598.14,-129.49C1671.01,-135.76 1758.86,-143.95 1837.67,-153 1853.71,-154.84 1857.61,-156.27 1873.67,-158 1910.26,-161.94 1948.77,-165.56 1986.89,-168.83"/>
<polygon fill="#000000" stroke="#000000" points="1986.84,-172.34 1997.1,-169.7 1987.43,-165.36 1986.84,-172.34"/>
</g>
<!-- crs__get_how_many_below_threshold_between_line_and_points_and_their_indices -->
<g id="node15" class="node">
<title>crs__get_how_many_below_threshold_between_line_and_points_and_their_indices</title>
<ellipse fill="#e5fecc" fill-opacity="0.698039" stroke="black" cx="1440.98" cy="-189" rx="396.87" ry="26.74"/>
<text text-anchor="middle" x="1440.98" y="-192.8" font-family="Times,serif" font-size="14.00" fill="#000000">get_how_many_below_threshold_between_line_and_points_and_their_indices</text>
<text text-anchor="middle" x="1440.98" y="-177.8" font-family="Times,serif" font-size="14.00" fill="#000000">(crs.py:91)</text>
</g>
<!-- crs__get_ransac_line_iteration_results -->
<g id="node17" class="node">
<title>crs__get_ransac_line_iteration_results</title>
<ellipse fill="#e5fecc" fill-opacity="0.698039" stroke="black" cx="516.15" cy="-189" rx="177.47" ry="26.74"/>
<text text-anchor="middle" x="516.15" y="-192.8" font-family="Times,serif" font-size="14.00" fill="#000000">get_ransac_line_iteration_results</text>
<text text-anchor="middle" x="516.15" y="-177.8" font-family="Times,serif" font-size="14.00" fill="#000000">(crs.py:226)</text>
</g>
<!-- crs__get_ransac_line_iteration_results&#45;&gt;crs__get_how_many_below_threshold_between_line_and_points_and_their_indices -->
<g id="edge9" class="edge">
<title>crs__get_ransac_line_iteration_results&#45;&gt;crs__get_how_many_below_threshold_between_line_and_points_and_their_indices</title>
<path fill="none" stroke="#000000" d="M693.71,-189C790.54,-189 914.86,-189 1034.15,-189"/>
<polygon fill="#000000" stroke="#000000" points="1034.2,-192.5 1044.2,-189 1034.2,-185.5 1034.2,-192.5"/>
</g>
<!-- crs__get_ransac_plane_iteration_results -->
<g id="node18" class="node">
<title>crs__get_ransac_plane_iteration_results</title>
<ellipse fill="#e5fecc" fill-opacity="0.698039" stroke="black" cx="1440.98" cy="-261" rx="186.85" ry="26.74"/>
<text text-anchor="middle" x="1440.98" y="-264.8" font-family="Times,serif" font-size="14.00" fill="#000000">get_ransac_plane_iteration_results</text>
<text text-anchor="middle" x="1440.98" y="-249.8" font-family="Times,serif" font-size="14.00" fill="#000000">(crs.py:250)</text>
</g>
<!-- crs__get_ransac_plane_iteration_results&#45;&gt;crs__get_how_many_below_threshold_between_plane_and_points_and_their_indices -->
<g id="edge10" class="edge">
<title>crs__get_ransac_plane_iteration_results&#45;&gt;crs__get_how_many_below_threshold_between_plane_and_points_and_their_indices</title>
<path fill="none" stroke="#000000" d="M1601.79,-247.25C1720.24,-237.05 1884.16,-222.94 2021,-211.17"/>
<polygon fill="#000000" stroke="#000000" points="2021.56,-214.63 2031.23,-210.29 2020.96,-207.66 2021.56,-214.63"/>
</g>
<!-- crs__get_ransac_plane_results -->
<g id="node19" class="node">
<title>crs__get_ransac_plane_results</title>
<ellipse fill="#e5fecc" fill-opacity="0.698039" stroke="black" cx="516.15" cy="-261" rx="138.69" ry="26.74"/>
<text text-anchor="middle" x="516.15" y="-264.8" font-family="Times,serif" font-size="14.00" fill="#000000">get_ransac_plane_results</text>
<text text-anchor="middle" x="516.15" y="-249.8" font-family="Times,serif" font-size="14.00" fill="#000000">(crs.py:319)</text>
</g>
<!-- crs__get_ransac_plane_results&#45;&gt;crs__get_ransac_plane_iteration_results -->
<g id="edge11" class="edge">
<title>crs__get_ransac_plane_results&#45;&gt;crs__get_ransac_plane_iteration_results</title>
<path fill="none" stroke="#000000" d="M654.81,-261C810.93,-261 1066.73,-261 1243.73,-261"/>
<polygon fill="#000000" stroke="#000000" points="1243.95,-264.5 1253.95,-261 1243.95,-257.5 1243.95,-264.5"/>
</g>
<!-- crsu__compute_number_iterations -->
<g id="node20" class="node">
<title>crsu__compute_number_iterations</title>
<ellipse fill="#ccfefe" fill-opacity="0.698039" stroke="black" cx="1440.98" cy="-362" rx="152.97" ry="26.74"/>
<text text-anchor="middle" x="1440.98" y="-365.8" font-family="Times,serif" font-size="14.00" fill="#000000">compute_number_iterations</text>
<text text-anchor="middle" x="1440.98" y="-350.8" font-family="Times,serif" font-size="14.00" fill="#000000">(crsu.py:5)</text>
</g>
<!-- crs__get_ransac_plane_results&#45;&gt;crsu__compute_number_iterations -->
<g id="edge12" class="edge">
<title>crs__get_ransac_plane_results&#45;&gt;crsu__compute_number_iterations</title>
<path fill="none" stroke="#000000" d="M633.54,-275.33C740.31,-288.32 902.86,-307.71 1044.29,-323 1127.54,-332 1220.74,-341.22 1295.77,-348.44"/>
<polygon fill="#000000" stroke="#000000" points="1295.47,-351.93 1305.76,-349.4 1296.14,-344.96 1295.47,-351.93"/>
</g>
</g>
</svg>

