<?xml version="1.0" encoding="UTF-8" standalone="no"?>
<!DOCTYPE svg PUBLIC "-//W3C//DTD SVG 1.1//EN"
 "http://www.w3.org/Graphics/SVG/1.1/DTD/svg11.dtd">
<!-- Generated by graphviz version 2.43.0 (0)
 -->
<!-- Title: G Pages: 1 -->
<svg width="2630pt" height="1126pt"
 viewBox="0.00 0.00 2630.39 1126.00" xmlns="http://www.w3.org/2000/svg" xmlns:xlink="http://www.w3.org/1999/xlink">
<g id="graph0" class="graph" transform="scale(1 1) rotate(0) translate(4 1122)">
<title>G</title>
<polygon fill="white" stroke="transparent" points="-4,4 -4,-1122 2626.39,-1122 2626.39,4 -4,4"/>
<g id="clust1" class="cluster">
<title>cluster_G</title>
<path fill="#808080" fill-opacity="0.094118" stroke="black" d="M20,-8C20,-8 2602.39,-8 2602.39,-8 2608.39,-8 2614.39,-14 2614.39,-20 2614.39,-20 2614.39,-1098 2614.39,-1098 2614.39,-1104 2608.39,-1110 2602.39,-1110 2602.39,-1110 20,-1110 20,-1110 14,-1110 8,-1104 8,-1098 8,-1098 8,-20 8,-20 8,-14 14,-8 20,-8"/>
</g>
<g id="clust2" class="cluster">
<title>cluster_crs</title>
<path fill="#808080" fill-opacity="0.094118" stroke="black" d="M28,-116C28,-116 2105.84,-116 2105.84,-116 2111.84,-116 2117.84,-122 2117.84,-128 2117.84,-128 2117.84,-341 2117.84,-341 2117.84,-347 2111.84,-353 2105.84,-353 2105.84,-353 28,-353 28,-353 22,-353 16,-347 16,-341 16,-341 16,-128 16,-128 16,-122 22,-116 28,-116"/>
<text text-anchor="middle" x="1066.92" y="-337.8" font-family="Times,serif" font-size="14.00">crs</text>
</g>
<g id="clust3" class="cluster">
<title>cluster_crsu</title>
<path fill="#808080" fill-opacity="0.094118" stroke="black" d="M716.66,-361C716.66,-361 1014.13,-361 1014.13,-361 1020.13,-361 1026.13,-367 1026.13,-373 1026.13,-373 1026.13,-442 1026.13,-442 1026.13,-448 1020.13,-454 1014.13,-454 1014.13,-454 716.66,-454 716.66,-454 710.66,-454 704.66,-448 704.66,-442 704.66,-442 704.66,-373 704.66,-373 704.66,-367 710.66,-361 716.66,-361"/>
<text text-anchor="middle" x="865.39" y="-438.8" font-family="Times,serif" font-size="14.00">crsu</text>
</g>
<g id="clust4" class="cluster">
<title>cluster_sampling</title>
<path fill="#808080" fill-opacity="0.094118" stroke="black" d="M1502.19,-361C1502.19,-361 2594.39,-361 2594.39,-361 2600.39,-361 2606.39,-367 2606.39,-373 2606.39,-373 2606.39,-1090 2606.39,-1090 2606.39,-1096 2600.39,-1102 2594.39,-1102 2594.39,-1102 1502.19,-1102 1502.19,-1102 1496.19,-1102 1490.19,-1096 1490.19,-1090 1490.19,-1090 1490.19,-373 1490.19,-373 1490.19,-367 1496.19,-361 1502.19,-361"/>
<text text-anchor="middle" x="2048.29" y="-1086.8" font-family="Times,serif" font-size="14.00">sampling</text>
</g>
<!-- crs -->
<g id="node1" class="node">
<title>crs</title>
<ellipse fill="#ffffff" fill-opacity="0.698039" stroke="black" cx="228.35" cy="-61" rx="27" ry="18"/>
<text text-anchor="middle" x="228.35" y="-57.3" font-family="Times,serif" font-size="14.00" fill="#000000">crs</text>
</g>
<!-- crsu -->
<g id="node2" class="node">
<title>crsu</title>
<ellipse fill="#ffffff" fill-opacity="0.698039" stroke="black" cx="865.39" cy="-34" rx="30.59" ry="18"/>
<text text-anchor="middle" x="865.39" y="-30.3" font-family="Times,serif" font-size="14.00" fill="#000000">crsu</text>
</g>
<!-- crs&#45;&gt;crsu -->
<g id="edge12" class="edge">
<title>crs&#45;&gt;crsu</title>
<path fill="none" stroke="#000000" d="M255.43,-59.89C354.21,-55.69 705.78,-40.74 824.73,-35.69"/>
<polygon fill="#000000" stroke="#000000" points="825.01,-39.18 834.85,-35.26 824.71,-32.18 825.01,-39.18"/>
</g>
<!-- sampling -->
<g id="node3" class="node">
<title>sampling</title>
<ellipse fill="#ffffff" fill-opacity="0.698039" stroke="black" cx="865.39" cy="-88" rx="53.09" ry="18"/>
<text text-anchor="middle" x="865.39" y="-84.3" font-family="Times,serif" font-size="14.00" fill="#000000">sampling</text>
</g>
<!-- crs&#45;&gt;sampling -->
<g id="edge13" class="edge">
<title>crs&#45;&gt;sampling</title>
<path fill="none" stroke="#000000" d="M255.43,-62.11C348.58,-66.07 666.53,-79.59 802.21,-85.36"/>
<polygon fill="#000000" stroke="#000000" points="802.3,-88.86 812.44,-85.79 802.6,-81.87 802.3,-88.86"/>
</g>
<!-- crs__get_best_fitting_data_from_list_planes -->
<g id="node4" class="node">
<title>crs__get_best_fitting_data_from_list_planes</title>
<ellipse fill="#fecccc" fill-opacity="0.698039" stroke="black" cx="228.35" cy="-151" rx="204.21" ry="26.74"/>
<text text-anchor="middle" x="228.35" y="-154.8" font-family="Times,serif" font-size="14.00" fill="#000000">get_best_fitting_data_from_list_planes</text>
<text text-anchor="middle" x="228.35" y="-139.8" font-family="Times,serif" font-size="14.00" fill="#000000">(crs.py:446)</text>
</g>
<!-- crs__get_fitting_data_from_list_planes -->
<g id="node5" class="node">
<title>crs__get_fitting_data_from_list_planes</title>
<ellipse fill="#fecccc" fill-opacity="0.698039" stroke="black" cx="865.39" cy="-151" rx="177.47" ry="26.74"/>
<text text-anchor="middle" x="865.39" y="-154.8" font-family="Times,serif" font-size="14.00" fill="#000000">get_fitting_data_from_list_planes</text>
<text text-anchor="middle" x="865.39" y="-139.8" font-family="Times,serif" font-size="14.00" fill="#000000">(crs.py:399)</text>
</g>
<!-- crs__get_best_fitting_data_from_list_planes&#45;&gt;crs__get_fitting_data_from_list_planes -->
<g id="edge21" class="edge">
<title>crs__get_best_fitting_data_from_list_planes&#45;&gt;crs__get_fitting_data_from_list_planes</title>
<path fill="none" stroke="#000000" d="M432.91,-151C511.37,-151 600.55,-151 677.38,-151"/>
<polygon fill="#000000" stroke="#000000" points="677.65,-154.5 687.65,-151 677.65,-147.5 677.65,-154.5"/>
</g>
<!-- crs__get_how_many_below_threshold_between_plane_and_points_and_their_indices -->
<g id="node7" class="node">
<title>crs__get_how_many_below_threshold_between_plane_and_points_and_their_indices</title>
<ellipse fill="#fecccc" fill-opacity="0.698039" stroke="black" cx="1703.96" cy="-223" rx="405.76" ry="26.74"/>
<text text-anchor="middle" x="1703.96" y="-226.8" font-family="Times,serif" font-size="14.00" fill="#000000">get_how_many_below_threshold_between_plane_and_points_and_their_indices</text>
<text text-anchor="middle" x="1703.96" y="-211.8" font-family="Times,serif" font-size="14.00" fill="#000000">(crs.py:180)</text>
</g>
<!-- crs__get_fitting_data_from_list_planes&#45;&gt;crs__get_how_many_below_threshold_between_plane_and_points_and_their_indices -->
<g id="edge20" class="edge">
<title>crs__get_fitting_data_from_list_planes&#45;&gt;crs__get_how_many_below_threshold_between_plane_and_points_and_their_indices</title>
<path fill="none" stroke="#000000" d="M1020.32,-164.25C1139.22,-174.48 1306.41,-188.87 1445.56,-200.85"/>
<polygon fill="#000000" stroke="#000000" points="1445.27,-204.33 1455.53,-201.7 1445.87,-197.36 1445.27,-204.33"/>
</g>
<!-- crs__get_how_many_below_threshold_between_line_and_points_and_their_indices -->
<g id="node6" class="node">
<title>crs__get_how_many_below_threshold_between_line_and_points_and_their_indices</title>
<ellipse fill="#fecccc" fill-opacity="0.698039" stroke="black" cx="865.39" cy="-223" rx="396.87" ry="26.74"/>
<text text-anchor="middle" x="865.39" y="-226.8" font-family="Times,serif" font-size="14.00" fill="#000000">get_how_many_below_threshold_between_line_and_points_and_their_indices</text>
<text text-anchor="middle" x="865.39" y="-211.8" font-family="Times,serif" font-size="14.00" fill="#000000">(crs.py:91)</text>
</g>
<!-- crs__get_ransac_line_iteration_results -->
<g id="node8" class="node">
<title>crs__get_ransac_line_iteration_results</title>
<ellipse fill="#fecccc" fill-opacity="0.698039" stroke="black" cx="228.35" cy="-223" rx="177.47" ry="26.74"/>
<text text-anchor="middle" x="228.35" y="-226.8" font-family="Times,serif" font-size="14.00" fill="#000000">get_ransac_line_iteration_results</text>
<text text-anchor="middle" x="228.35" y="-211.8" font-family="Times,serif" font-size="14.00" fill="#000000">(crs.py:226)</text>
</g>
<!-- crs__get_ransac_line_iteration_results&#45;&gt;crs__get_how_many_below_threshold_between_line_and_points_and_their_indices -->
<g id="edge14" class="edge">
<title>crs__get_ransac_line_iteration_results&#45;&gt;crs__get_how_many_below_threshold_between_line_and_points_and_their_indices</title>
<path fill="none" stroke="#000000" d="M406.25,-223C423.12,-223 440.66,-223 458.61,-223"/>
<polygon fill="#000000" stroke="#000000" points="458.63,-226.5 468.63,-223 458.63,-219.5 458.63,-226.5"/>
</g>
<!-- sampling__sampling_np_arrays_from_enumerable -->
<g id="node26" class="node">
<title>sampling__sampling_np_arrays_from_enumerable</title>
<ellipse fill="#ccfefe" fill-opacity="0.698039" stroke="black" cx="1703.96" cy="-756" rx="205.54" ry="26.74"/>
<text text-anchor="middle" x="1703.96" y="-759.8" font-family="Times,serif" font-size="14.00" fill="#000000">sampling_np_arrays_from_enumerable</text>
<text text-anchor="middle" x="1703.96" y="-744.8" font-family="Times,serif" font-size="14.00" fill="#000000">(sampling.py:993)</text>
</g>
<!-- crs__get_ransac_line_iteration_results&#45;&gt;sampling__sampling_np_arrays_from_enumerable -->
<g id="edge15" class="edge">
<title>crs__get_ransac_line_iteration_results&#45;&gt;sampling__sampling_np_arrays_from_enumerable</title>
<path fill="none" stroke="#000000" d="M386.63,-235.29C403.15,-241.01 418.92,-248.71 432.71,-259 461.38,-280.4 438.59,-311.69 468.71,-331 542.97,-378.59 1197.69,-296.73 1262.08,-357 1321.26,-412.39 1240.47,-662.97 1298.08,-720 1373.37,-794.53 1499.59,-794.03 1591.12,-780.86"/>
<polygon fill="#000000" stroke="#000000" points="1591.89,-784.29 1601.26,-779.33 1590.85,-777.37 1591.89,-784.29"/>
</g>
<!-- crs__get_ransac_plane_iteration_results -->
<g id="node9" class="node">
<title>crs__get_ransac_plane_iteration_results</title>
<ellipse fill="#fecccc" fill-opacity="0.698039" stroke="black" cx="865.39" cy="-295" rx="186.85" ry="26.74"/>
<text text-anchor="middle" x="865.39" y="-298.8" font-family="Times,serif" font-size="14.00" fill="#000000">get_ransac_plane_iteration_results</text>
<text text-anchor="middle" x="865.39" y="-283.8" font-family="Times,serif" font-size="14.00" fill="#000000">(crs.py:250)</text>
</g>
<!-- crs__get_ransac_plane_iteration_results&#45;&gt;crs__get_how_many_below_threshold_between_plane_and_points_and_their_indices -->
<g id="edge17" class="edge">
<title>crs__get_ransac_plane_iteration_results&#45;&gt;crs__get_how_many_below_threshold_between_plane_and_points_and_their_indices</title>
<path fill="none" stroke="#000000" d="M1026.21,-281.25C1144.65,-271.05 1308.57,-256.94 1445.42,-245.17"/>
<polygon fill="#000000" stroke="#000000" points="1445.98,-248.63 1455.64,-244.29 1445.38,-241.66 1445.98,-248.63"/>
</g>
<!-- crs__get_ransac_plane_iteration_results&#45;&gt;sampling__sampling_np_arrays_from_enumerable -->
<g id="edge16" class="edge">
<title>crs__get_ransac_plane_iteration_results&#45;&gt;sampling__sampling_np_arrays_from_enumerable</title>
<path fill="none" stroke="#000000" d="M977.72,-273.53C1067.31,-263.28 1189.8,-266.35 1262.08,-340 1321.49,-400.54 1237.93,-660.19 1298.08,-720 1373.33,-794.81 1499.86,-794.16 1591.47,-780.89"/>
<polygon fill="#000000" stroke="#000000" points="1592.26,-784.31 1601.62,-779.34 1591.21,-777.39 1592.26,-784.31"/>
</g>
<!-- crs__get_ransac_plane_results -->
<g id="node10" class="node">
<title>crs__get_ransac_plane_results</title>
<ellipse fill="#fecccc" fill-opacity="0.698039" stroke="black" cx="228.35" cy="-295" rx="138.69" ry="26.74"/>
<text text-anchor="middle" x="228.35" y="-298.8" font-family="Times,serif" font-size="14.00" fill="#000000">get_ransac_plane_results</text>
<text text-anchor="middle" x="228.35" y="-283.8" font-family="Times,serif" font-size="14.00" fill="#000000">(crs.py:319)</text>
</g>
<!-- crs__get_ransac_plane_results&#45;&gt;crs__get_ransac_plane_iteration_results -->
<g id="edge19" class="edge">
<title>crs__get_ransac_plane_results&#45;&gt;crs__get_ransac_plane_iteration_results</title>
<path fill="none" stroke="#000000" d="M367.15,-295C455.23,-295 570.82,-295 668.38,-295"/>
<polygon fill="#000000" stroke="#000000" points="668.67,-298.5 678.67,-295 668.67,-291.5 668.67,-298.5"/>
</g>
<!-- crsu__compute_number_iterations -->
<g id="node11" class="node">
<title>crsu__compute_number_iterations</title>
<ellipse fill="#e5fecc" fill-opacity="0.698039" stroke="black" cx="865.39" cy="-396" rx="152.97" ry="26.74"/>
<text text-anchor="middle" x="865.39" y="-399.8" font-family="Times,serif" font-size="14.00" fill="#000000">compute_number_iterations</text>
<text text-anchor="middle" x="865.39" y="-384.8" font-family="Times,serif" font-size="14.00" fill="#000000">(crsu.py:5)</text>
</g>
<!-- crs__get_ransac_plane_results&#45;&gt;crsu__compute_number_iterations -->
<g id="edge18" class="edge">
<title>crs__get_ransac_plane_results&#45;&gt;crsu__compute_number_iterations</title>
<path fill="none" stroke="#000000" d="M304.16,-317.57C351.03,-330.91 412.92,-347.09 468.71,-357 547.9,-371.07 636.97,-380.41 710.53,-386.42"/>
<polygon fill="#000000" stroke="#000000" points="710.56,-389.93 720.8,-387.24 711.12,-382.95 710.56,-389.93"/>
</g>
<!-- sampling____sample_point_alligned_parallelogram_2d -->
<g id="node12" class="node">
<title>sampling____sample_point_alligned_parallelogram_2d</title>
<ellipse fill="#ccfefe" fill-opacity="0.698039" stroke="black" cx="2372.11" cy="-1044" rx="226.05" ry="26.74"/>
<text text-anchor="middle" x="2372.11" y="-1047.8" font-family="Times,serif" font-size="14.00" fill="#000000">__sample_point_alligned_parallelogram_2d</text>
<text text-anchor="middle" x="2372.11" y="-1032.8" font-family="Times,serif" font-size="14.00" fill="#000000">(sampling.py:382)</text>
</g>
<!-- sampling____sample_point_circle_2d -->
<g id="node13" class="node">
<title>sampling____sample_point_circle_2d</title>
<ellipse fill="#ccfefe" fill-opacity="0.698039" stroke="black" cx="2372.11" cy="-828" rx="137.77" ry="26.74"/>
<text text-anchor="middle" x="2372.11" y="-831.8" font-family="Times,serif" font-size="14.00" fill="#000000">__sample_point_circle_2d</text>
<text text-anchor="middle" x="2372.11" y="-816.8" font-family="Times,serif" font-size="14.00" fill="#000000">(sampling.py:16)</text>
</g>
<!-- sampling____sample_point_circle_3d -->
<g id="node14" class="node">
<title>sampling____sample_point_circle_3d</title>
<ellipse fill="#ccfefe" fill-opacity="0.698039" stroke="black" cx="2372.11" cy="-972" rx="137.77" ry="26.74"/>
<text text-anchor="middle" x="2372.11" y="-975.8" font-family="Times,serif" font-size="14.00" fill="#000000">__sample_point_circle_3d</text>
<text text-anchor="middle" x="2372.11" y="-960.8" font-family="Times,serif" font-size="14.00" fill="#000000">(sampling.py:128)</text>
</g>
<!-- sampling____sample_point_cuboid -->
<g id="node15" class="node">
<title>sampling____sample_point_cuboid</title>
<ellipse fill="#ccfefe" fill-opacity="0.698039" stroke="black" cx="2372.11" cy="-900" rx="126.64" ry="26.74"/>
<text text-anchor="middle" x="2372.11" y="-903.8" font-family="Times,serif" font-size="14.00" fill="#000000">__sample_point_cuboid</text>
<text text-anchor="middle" x="2372.11" y="-888.8" font-family="Times,serif" font-size="14.00" fill="#000000">(sampling.py:767)</text>
</g>
<!-- sampling____sample_point_parallelepiped_3d -->
<g id="node16" class="node">
<title>sampling____sample_point_parallelepiped_3d</title>
<ellipse fill="#ccfefe" fill-opacity="0.698039" stroke="black" cx="2372.11" cy="-612" rx="182.37" ry="26.74"/>
<text text-anchor="middle" x="2372.11" y="-615.8" font-family="Times,serif" font-size="14.00" fill="#000000">__sample_point_parallelepiped_3d</text>
<text text-anchor="middle" x="2372.11" y="-600.8" font-family="Times,serif" font-size="14.00" fill="#000000">(sampling.py:522)</text>
</g>
<!-- sampling____sample_point_parallelogram_2d -->
<g id="node17" class="node">
<title>sampling____sample_point_parallelogram_2d</title>
<ellipse fill="#ccfefe" fill-opacity="0.698039" stroke="black" cx="2372.11" cy="-540" rx="181.04" ry="26.74"/>
<text text-anchor="middle" x="2372.11" y="-543.8" font-family="Times,serif" font-size="14.00" fill="#000000">__sample_point_parallelogram_2d</text>
<text text-anchor="middle" x="2372.11" y="-528.8" font-family="Times,serif" font-size="14.00" fill="#000000">(sampling.py:242)</text>
</g>
<!-- sampling____sample_point_parallelogram_3d -->
<g id="node18" class="node">
<title>sampling____sample_point_parallelogram_3d</title>
<ellipse fill="#ccfefe" fill-opacity="0.698039" stroke="black" cx="2372.11" cy="-468" rx="181.04" ry="26.74"/>
<text text-anchor="middle" x="2372.11" y="-471.8" font-family="Times,serif" font-size="14.00" fill="#000000">__sample_point_parallelogram_3d</text>
<text text-anchor="middle" x="2372.11" y="-456.8" font-family="Times,serif" font-size="14.00" fill="#000000">(sampling.py:496)</text>
</g>
<!-- sampling____sample_point_sphere -->
<g id="node19" class="node">
<title>sampling____sample_point_sphere</title>
<ellipse fill="#ccfefe" fill-opacity="0.698039" stroke="black" cx="2372.11" cy="-684" rx="127.06" ry="26.74"/>
<text text-anchor="middle" x="2372.11" y="-687.8" font-family="Times,serif" font-size="14.00" fill="#000000">__sample_point_sphere</text>
<text text-anchor="middle" x="2372.11" y="-672.8" font-family="Times,serif" font-size="14.00" fill="#000000">(sampling.py:780)</text>
</g>
<!-- sampling____set_random_seed -->
<g id="node20" class="node">
<title>sampling____set_random_seed</title>
<ellipse fill="#ccfefe" fill-opacity="0.698039" stroke="black" cx="2372.11" cy="-756" rx="108.38" ry="26.74"/>
<text text-anchor="middle" x="2372.11" y="-759.8" font-family="Times,serif" font-size="14.00" fill="#000000">__set_random_seed</text>
<text text-anchor="middle" x="2372.11" y="-744.8" font-family="Times,serif" font-size="14.00" fill="#000000">(sampling.py:7)</text>
</g>
<!-- sampling__sampling_alligned_parallelogram_2d -->
<g id="node21" class="node">
<title>sampling__sampling_alligned_parallelogram_2d</title>
<ellipse fill="#ccfefe" fill-opacity="0.698039" stroke="black" cx="1703.96" cy="-1044" rx="195.74" ry="26.74"/>
<text text-anchor="middle" x="1703.96" y="-1047.8" font-family="Times,serif" font-size="14.00" fill="#000000">sampling_alligned_parallelogram_2d</text>
<text text-anchor="middle" x="1703.96" y="-1032.8" font-family="Times,serif" font-size="14.00" fill="#000000">(sampling.py:410)</text>
</g>
<!-- sampling__sampling_alligned_parallelogram_2d&#45;&gt;sampling____sample_point_alligned_parallelogram_2d -->
<g id="edge5" class="edge">
<title>sampling__sampling_alligned_parallelogram_2d&#45;&gt;sampling____sample_point_alligned_parallelogram_2d</title>
<path fill="none" stroke="#000000" d="M1899.88,-1044C1973.56,-1044 2058.2,-1044 2135.24,-1044"/>
<polygon fill="#000000" stroke="#000000" points="2135.56,-1047.5 2145.56,-1044 2135.56,-1040.5 2135.56,-1047.5"/>
</g>
<!-- sampling__sampling_circle_2d -->
<g id="node22" class="node">
<title>sampling__sampling_circle_2d</title>
<ellipse fill="#ccfefe" fill-opacity="0.698039" stroke="black" cx="1703.96" cy="-828" rx="107.46" ry="26.74"/>
<text text-anchor="middle" x="1703.96" y="-831.8" font-family="Times,serif" font-size="14.00" fill="#000000">sampling_circle_2d</text>
<text text-anchor="middle" x="1703.96" y="-816.8" font-family="Times,serif" font-size="14.00" fill="#000000">(sampling.py:46)</text>
</g>
<!-- sampling__sampling_circle_2d&#45;&gt;sampling____sample_point_circle_2d -->
<g id="edge2" class="edge">
<title>sampling__sampling_circle_2d&#45;&gt;sampling____sample_point_circle_2d</title>
<path fill="none" stroke="#000000" d="M1811.62,-828C1923.28,-828 2099.39,-828 2224.17,-828"/>
<polygon fill="#000000" stroke="#000000" points="2224.19,-831.5 2234.19,-828 2224.19,-824.5 2224.19,-831.5"/>
</g>
<!-- sampling__sampling_circle_2d&#45;&gt;sampling____set_random_seed -->
<g id="edge1" class="edge">
<title>sampling__sampling_circle_2d&#45;&gt;sampling____set_random_seed</title>
<path fill="none" stroke="#000000" d="M1807.35,-820.62C1890.99,-814.23 2012.22,-804.1 2117.84,-792 2168.09,-786.24 2223.76,-778.48 2270.08,-771.64"/>
<polygon fill="#000000" stroke="#000000" points="2270.74,-775.08 2280.12,-770.15 2269.72,-768.16 2270.74,-775.08"/>
</g>
<!-- sampling__sampling_circle_3d -->
<g id="node23" class="node">
<title>sampling__sampling_circle_3d</title>
<ellipse fill="#ccfefe" fill-opacity="0.698039" stroke="black" cx="1703.96" cy="-972" rx="107.46" ry="26.74"/>
<text text-anchor="middle" x="1703.96" y="-975.8" font-family="Times,serif" font-size="14.00" fill="#000000">sampling_circle_3d</text>
<text text-anchor="middle" x="1703.96" y="-960.8" font-family="Times,serif" font-size="14.00" fill="#000000">(sampling.py:158)</text>
</g>
<!-- sampling__sampling_circle_3d&#45;&gt;sampling____sample_point_circle_3d -->
<g id="edge3" class="edge">
<title>sampling__sampling_circle_3d&#45;&gt;sampling____sample_point_circle_3d</title>
<path fill="none" stroke="#000000" d="M1811.62,-972C1923.28,-972 2099.39,-972 2224.17,-972"/>
<polygon fill="#000000" stroke="#000000" points="2224.19,-975.5 2234.19,-972 2224.19,-968.5 2224.19,-975.5"/>
</g>
<!-- sampling__sampling_cuboid -->
<g id="node24" class="node">
<title>sampling__sampling_cuboid</title>
<ellipse fill="#ccfefe" fill-opacity="0.698039" stroke="black" cx="1703.96" cy="-900" rx="103.48" ry="26.74"/>
<text text-anchor="middle" x="1703.96" y="-903.8" font-family="Times,serif" font-size="14.00" fill="#000000">sampling_cuboid</text>
<text text-anchor="middle" x="1703.96" y="-888.8" font-family="Times,serif" font-size="14.00" fill="#000000">(sampling.py:776)</text>
</g>
<!-- sampling__sampling_cuboid&#45;&gt;sampling____sample_point_cuboid -->
<g id="edge8" class="edge">
<title>sampling__sampling_cuboid&#45;&gt;sampling____sample_point_cuboid</title>
<path fill="none" stroke="#000000" d="M1807.22,-900C1921.92,-900 2108.46,-900 2235.31,-900"/>
<polygon fill="#000000" stroke="#000000" points="2235.48,-903.5 2245.48,-900 2235.48,-896.5 2235.48,-903.5"/>
</g>
<!-- sampling__sampling_np_array_elements -->
<g id="node25" class="node">
<title>sampling__sampling_np_array_elements</title>
<ellipse fill="#ccfefe" fill-opacity="0.698039" stroke="black" cx="2372.11" cy="-396" rx="158.28" ry="26.74"/>
<text text-anchor="middle" x="2372.11" y="-399.8" font-family="Times,serif" font-size="14.00" fill="#000000">sampling_np_array_elements</text>
<text text-anchor="middle" x="2372.11" y="-384.8" font-family="Times,serif" font-size="14.00" fill="#000000">(sampling.py:890)</text>
</g>
<!-- sampling__sampling_parallelepiped_3d -->
<g id="node27" class="node">
<title>sampling__sampling_parallelepiped_3d</title>
<ellipse fill="#ccfefe" fill-opacity="0.698039" stroke="black" cx="1703.96" cy="-612" rx="152.06" ry="26.74"/>
<text text-anchor="middle" x="1703.96" y="-615.8" font-family="Times,serif" font-size="14.00" fill="#000000">sampling_parallelepiped_3d</text>
<text text-anchor="middle" x="1703.96" y="-600.8" font-family="Times,serif" font-size="14.00" fill="#000000">(sampling.py:655)</text>
</g>
<!-- sampling__sampling_parallelepiped_3d&#45;&gt;sampling____sample_point_parallelepiped_3d -->
<g id="edge7" class="edge">
<title>sampling__sampling_parallelepiped_3d&#45;&gt;sampling____sample_point_parallelepiped_3d</title>
<path fill="none" stroke="#000000" d="M1856.12,-612C1951.88,-612 2076.57,-612 2179.27,-612"/>
<polygon fill="#000000" stroke="#000000" points="2179.45,-615.5 2189.45,-612 2179.45,-608.5 2179.45,-615.5"/>
</g>
<!-- sampling__sampling_parallelogram_2d -->
<g id="node28" class="node">
<title>sampling__sampling_parallelogram_2d</title>
<ellipse fill="#ccfefe" fill-opacity="0.698039" stroke="black" cx="1703.96" cy="-540" rx="150.73" ry="26.74"/>
<text text-anchor="middle" x="1703.96" y="-543.8" font-family="Times,serif" font-size="14.00" fill="#000000">sampling_parallelogram_2d</text>
<text text-anchor="middle" x="1703.96" y="-528.8" font-family="Times,serif" font-size="14.00" fill="#000000">(sampling.py:267)</text>
</g>
<!-- sampling__sampling_parallelogram_2d&#45;&gt;sampling____sample_point_parallelogram_2d -->
<g id="edge4" class="edge">
<title>sampling__sampling_parallelogram_2d&#45;&gt;sampling____sample_point_parallelogram_2d</title>
<path fill="none" stroke="#000000" d="M1854.87,-540C1951.23,-540 2077.26,-540 2180.68,-540"/>
<polygon fill="#000000" stroke="#000000" points="2180.93,-543.5 2190.93,-540 2180.93,-536.5 2180.93,-543.5"/>
</g>
<!-- sampling__sampling_parallelogram_3d -->
<g id="node29" class="node">
<title>sampling__sampling_parallelogram_3d</title>
<ellipse fill="#ccfefe" fill-opacity="0.698039" stroke="black" cx="1703.96" cy="-468" rx="150.73" ry="26.74"/>
<text text-anchor="middle" x="1703.96" y="-471.8" font-family="Times,serif" font-size="14.00" fill="#000000">sampling_parallelogram_3d</text>
<text text-anchor="middle" x="1703.96" y="-456.8" font-family="Times,serif" font-size="14.00" fill="#000000">(sampling.py:554)</text>
</g>
<!-- sampling__sampling_parallelogram_3d&#45;&gt;sampling____sample_point_parallelogram_3d -->
<g id="edge6" class="edge">
<title>sampling__sampling_parallelogram_3d&#45;&gt;sampling____sample_point_parallelogram_3d</title>
<path fill="none" stroke="#000000" d="M1854.87,-468C1951.23,-468 2077.26,-468 2180.68,-468"/>
<polygon fill="#000000" stroke="#000000" points="2180.93,-471.5 2190.93,-468 2180.93,-464.5 2180.93,-471.5"/>
</g>
<!-- sampling__sampling_pcd_points -->
<g id="node30" class="node">
<title>sampling__sampling_pcd_points</title>
<ellipse fill="#ccfefe" fill-opacity="0.698039" stroke="black" cx="1703.96" cy="-396" rx="116.85" ry="26.74"/>
<text text-anchor="middle" x="1703.96" y="-399.8" font-family="Times,serif" font-size="14.00" fill="#000000">sampling_pcd_points</text>
<text text-anchor="middle" x="1703.96" y="-384.8" font-family="Times,serif" font-size="14.00" fill="#000000">(sampling.py:928)</text>
</g>
<!-- sampling__sampling_pcd_points&#45;&gt;sampling__sampling_np_array_elements -->
<g id="edge11" class="edge">
<title>sampling__sampling_pcd_points&#45;&gt;sampling__sampling_np_array_elements</title>
<path fill="none" stroke="#000000" d="M1821,-396C1926.67,-396 2083.97,-396 2203.34,-396"/>
<polygon fill="#000000" stroke="#000000" points="2203.67,-399.5 2213.67,-396 2203.67,-392.5 2203.67,-399.5"/>
</g>
<!-- sampling__sampling_sphere -->
<g id="node31" class="node">
<title>sampling__sampling_sphere</title>
<ellipse fill="#ccfefe" fill-opacity="0.698039" stroke="black" cx="1703.96" cy="-684" rx="103.48" ry="26.74"/>
<text text-anchor="middle" x="1703.96" y="-687.8" font-family="Times,serif" font-size="14.00" fill="#000000">sampling_sphere</text>
<text text-anchor="middle" x="1703.96" y="-672.8" font-family="Times,serif" font-size="14.00" fill="#000000">(sampling.py:811)</text>
</g>
<!-- sampling__sampling_sphere&#45;&gt;sampling____sample_point_sphere -->
<g id="edge10" class="edge">
<title>sampling__sampling_sphere&#45;&gt;sampling____sample_point_sphere</title>
<path fill="none" stroke="#000000" d="M1807.22,-684C1921.66,-684 2107.59,-684 2234.43,-684"/>
<polygon fill="#000000" stroke="#000000" points="2234.6,-687.5 2244.6,-684 2234.6,-680.5 2234.6,-687.5"/>
</g>
<!-- sampling__sampling_sphere&#45;&gt;sampling____set_random_seed -->
<g id="edge9" class="edge">
<title>sampling__sampling_sphere&#45;&gt;sampling____set_random_seed</title>
<path fill="none" stroke="#000000" d="M1803.55,-691.09C1887.29,-697.47 2010.61,-707.71 2117.84,-720 2168.09,-725.76 2223.76,-733.52 2270.08,-740.36"/>
<polygon fill="#000000" stroke="#000000" points="2269.72,-743.84 2280.12,-741.85 2270.74,-736.92 2269.72,-743.84"/>
</g>
</g>
</svg>

