<?xml version="1.0" encoding="UTF-8" standalone="no"?>
<!DOCTYPE svg PUBLIC "-//W3C//DTD SVG 1.1//EN"
 "http://www.w3.org/Graphics/SVG/1.1/DTD/svg11.dtd">
<!-- Generated by graphviz version 2.43.0 (0)
 -->
<!-- Title: G Pages: 1 -->
<svg width="2182pt" height="606pt"
 viewBox="0.00 0.00 2182.08 606.00" xmlns="http://www.w3.org/2000/svg" xmlns:xlink="http://www.w3.org/1999/xlink">
<g id="graph0" class="graph" transform="scale(1 1) rotate(0) translate(4 602)">
<title>G</title>
<polygon fill="white" stroke="transparent" points="-4,4 -4,-602 2178.08,-602 2178.08,4 -4,4"/>
<g id="clust1" class="cluster">
<title>cluster_G</title>
<path fill="#808080" fill-opacity="0.094118" stroke="black" d="M20,-8C20,-8 2154.08,-8 2154.08,-8 2160.08,-8 2166.08,-14 2166.08,-20 2166.08,-20 2166.08,-578 2166.08,-578 2166.08,-584 2160.08,-590 2154.08,-590 2154.08,-590 20,-590 20,-590 14,-590 8,-584 8,-578 8,-578 8,-20 8,-20 8,-14 14,-8 20,-8"/>
</g>
<g id="clust2" class="cluster">
<title>cluster_pointcloud</title>
<path fill="#808080" fill-opacity="0.094118" stroke="black" d="M1869.83,-417C1869.83,-417 2079.61,-417 2079.61,-417 2085.61,-417 2091.61,-423 2091.61,-429 2091.61,-429 2091.61,-570 2091.61,-570 2091.61,-576 2085.61,-582 2079.61,-582 2079.61,-582 1869.83,-582 1869.83,-582 1863.83,-582 1857.83,-576 1857.83,-570 1857.83,-570 1857.83,-429 1857.83,-429 1857.83,-423 1863.83,-417 1869.83,-417"/>
<text text-anchor="middle" x="1974.72" y="-566.8" font-family="Times,serif" font-size="14.00">pointcloud</text>
</g>
<g id="clust3" class="cluster">
<title>cluster_ransaclp</title>
<path fill="#808080" fill-opacity="0.094118" stroke="black" d="M519.38,-80C519.38,-80 2146.08,-80 2146.08,-80 2152.08,-80 2158.08,-86 2158.08,-92 2158.08,-92 2158.08,-397 2158.08,-397 2158.08,-403 2152.08,-409 2146.08,-409 2146.08,-409 519.38,-409 519.38,-409 513.38,-409 507.38,-403 507.38,-397 507.38,-397 507.38,-92 507.38,-92 507.38,-86 513.38,-80 519.38,-80"/>
<text text-anchor="middle" x="1332.73" y="-393.8" font-family="Times,serif" font-size="14.00">ransaclp</text>
</g>
<g id="clust4" class="cluster">
<title>cluster_ransaclpexperiments</title>
<path fill="#808080" fill-opacity="0.094118" stroke="black" d="M28,-417C28,-417 993.62,-417 993.62,-417 999.62,-417 1005.62,-423 1005.62,-429 1005.62,-429 1005.62,-570 1005.62,-570 1005.62,-576 999.62,-582 993.62,-582 993.62,-582 28,-582 28,-582 22,-582 16,-576 16,-570 16,-570 16,-429 16,-429 16,-423 22,-417 28,-417"/>
<text text-anchor="middle" x="510.81" y="-566.8" font-family="Times,serif" font-size="14.00">ransaclpexperiments</text>
</g>
<!-- pointcloud -->
<g id="node1" class="node">
<title>pointcloud</title>
<ellipse fill="#ffffff" fill-opacity="0.698039" stroke="black" cx="1460.01" cy="-43" rx="59.59" ry="18"/>
<text text-anchor="middle" x="1460.01" y="-39.3" font-family="Times,serif" font-size="14.00" fill="#000000">pointcloud</text>
</g>
<!-- ransaclp -->
<g id="node2" class="node">
<title>ransaclp</title>
<ellipse fill="#ffffff" fill-opacity="0.698039" stroke="black" cx="818.02" cy="-34" rx="50.09" ry="18"/>
<text text-anchor="middle" x="818.02" y="-30.3" font-family="Times,serif" font-size="14.00" fill="#000000">ransaclp</text>
</g>
<!-- ransaclp&#45;&gt;pointcloud -->
<g id="edge7" class="edge">
<title>ransaclp&#45;&gt;pointcloud</title>
<path fill="none" stroke="#000000" d="M868.17,-34.69C981.17,-36.28 1259.66,-40.2 1389.85,-42.03"/>
<polygon fill="#000000" stroke="#000000" points="1390.04,-45.53 1400.09,-42.17 1390.14,-38.53 1390.04,-45.53"/>
</g>
<!-- ransaclpexperiments -->
<g id="node3" class="node">
<title>ransaclpexperiments</title>
<ellipse fill="#ffffff" fill-opacity="0.698039" stroke="black" cx="251.69" cy="-52" rx="108.58" ry="18"/>
<text text-anchor="middle" x="251.69" y="-48.3" font-family="Times,serif" font-size="14.00" fill="#000000">ransaclpexperiments</text>
</g>
<!-- ransaclpexperiments&#45;&gt;pointcloud -->
<g id="edge2" class="edge">
<title>ransaclpexperiments&#45;&gt;pointcloud</title>
<path fill="none" stroke="#000000" d="M357.06,-56.52C403.13,-58.3 457.94,-60.13 507.38,-61 779.9,-65.81 848.19,-68.24 1120.66,-61 1214.63,-58.5 1323.12,-52.11 1391.39,-47.66"/>
<polygon fill="#000000" stroke="#000000" points="1391.82,-51.14 1401.57,-46.99 1391.37,-44.15 1391.82,-51.14"/>
</g>
<!-- ransaclpexperiments&#45;&gt;ransaclp -->
<g id="edge1" class="edge">
<title>ransaclpexperiments&#45;&gt;ransaclp</title>
<path fill="none" stroke="#000000" d="M358.5,-48.62C476.48,-44.86 663.09,-38.91 757.75,-35.89"/>
<polygon fill="#000000" stroke="#000000" points="758.12,-39.38 768,-35.56 757.89,-32.38 758.12,-39.38"/>
</g>
<!-- pointcloud__pointcloud_audit -->
<g id="node4" class="node">
<title>pointcloud__pointcloud_audit</title>
<ellipse fill="#fecccc" fill-opacity="0.698039" stroke="black" cx="1974.72" cy="-452" rx="96.75" ry="26.74"/>
<text text-anchor="middle" x="1974.72" y="-455.8" font-family="Times,serif" font-size="14.00" fill="#000000">pointcloud_audit</text>
<text text-anchor="middle" x="1974.72" y="-440.8" font-family="Times,serif" font-size="14.00" fill="#000000">(pointcloud.py:5)</text>
</g>
<!-- pointcloud__pointcloud_sanitize -->
<g id="node5" class="node">
<title>pointcloud__pointcloud_sanitize</title>
<ellipse fill="#fecccc" fill-opacity="0.698039" stroke="black" cx="1974.72" cy="-524" rx="108.79" ry="26.74"/>
<text text-anchor="middle" x="1974.72" y="-527.8" font-family="Times,serif" font-size="14.00" fill="#000000">pointcloud_sanitize</text>
<text text-anchor="middle" x="1974.72" y="-512.8" font-family="Times,serif" font-size="14.00" fill="#000000">(pointcloud.py:39)</text>
</g>
<!-- ransaclp__get_lines_and_number_inliers_from_ransac_data_from_file -->
<g id="node6" class="node">
<title>ransaclp__get_lines_and_number_inliers_from_ransac_data_from_file</title>
<ellipse fill="#e5fecc" fill-opacity="0.698039" stroke="black" cx="1460.01" cy="-351" rx="303.2" ry="26.74"/>
<text text-anchor="middle" x="1460.01" y="-354.8" font-family="Times,serif" font-size="14.00" fill="#000000">get_lines_and_number_inliers_from_ransac_data_from_file</text>
<text text-anchor="middle" x="1460.01" y="-339.8" font-family="Times,serif" font-size="14.00" fill="#000000">(ransaclp.py:297)</text>
</g>
<!-- ransaclp__get_lines_and_number_inliers_ordered_by_number_inliers -->
<g id="node7" class="node">
<title>ransaclp__get_lines_and_number_inliers_ordered_by_number_inliers</title>
<ellipse fill="#e5fecc" fill-opacity="0.698039" stroke="black" cx="818.02" cy="-351" rx="302.78" ry="26.74"/>
<text text-anchor="middle" x="818.02" y="-354.8" font-family="Times,serif" font-size="14.00" fill="#000000">get_lines_and_number_inliers_ordered_by_number_inliers</text>
<text text-anchor="middle" x="818.02" y="-339.8" font-family="Times,serif" font-size="14.00" fill="#000000">(ransaclp.py:305)</text>
</g>
<!-- ransaclp__get_lines_and_number_inliers_ordered_by_number_inliers&#45;&gt;ransaclp__get_lines_and_number_inliers_from_ransac_data_from_file -->
<g id="edge11" class="edge">
<title>ransaclp__get_lines_and_number_inliers_ordered_by_number_inliers&#45;&gt;ransaclp__get_lines_and_number_inliers_from_ransac_data_from_file</title>
<path fill="none" stroke="#000000" d="M1120.74,-351C1129.15,-351 1137.57,-351 1145.99,-351"/>
<polygon fill="#000000" stroke="#000000" points="1146.25,-354.5 1156.25,-351 1146.25,-347.5 1146.25,-354.5"/>
</g>
<!-- ransaclp__get_n_percentile_from_list_sse_plane -->
<g id="node8" class="node">
<title>ransaclp__get_n_percentile_from_list_sse_plane</title>
<ellipse fill="#e5fecc" fill-opacity="0.698039" stroke="black" cx="1460.01" cy="-135" rx="197.98" ry="26.74"/>
<text text-anchor="middle" x="1460.01" y="-138.8" font-family="Times,serif" font-size="14.00" fill="#000000">get_n_percentile_from_list_sse_plane</text>
<text text-anchor="middle" x="1460.01" y="-123.8" font-family="Times,serif" font-size="14.00" fill="#000000">(ransaclp.py:430)</text>
</g>
<!-- ransaclp__get_ordered_list_sse_plane -->
<g id="node9" class="node">
<title>ransaclp__get_ordered_list_sse_plane</title>
<ellipse fill="#e5fecc" fill-opacity="0.698039" stroke="black" cx="1460.01" cy="-207" rx="147.16" ry="26.74"/>
<text text-anchor="middle" x="1460.01" y="-210.8" font-family="Times,serif" font-size="14.00" fill="#000000">get_ordered_list_sse_plane</text>
<text text-anchor="middle" x="1460.01" y="-195.8" font-family="Times,serif" font-size="14.00" fill="#000000">(ransaclp.py:354)</text>
</g>
<!-- ransaclp__get_ransac_data_from_filename -->
<g id="node10" class="node">
<title>ransaclp__get_ransac_data_from_filename</title>
<ellipse fill="#e5fecc" fill-opacity="0.698039" stroke="black" cx="1460.01" cy="-279" rx="169.91" ry="26.74"/>
<text text-anchor="middle" x="1460.01" y="-282.8" font-family="Times,serif" font-size="14.00" fill="#000000">get_ransac_data_from_filename</text>
<text text-anchor="middle" x="1460.01" y="-267.8" font-family="Times,serif" font-size="14.00" fill="#000000">(ransaclp.py:141)</text>
</g>
<!-- ransaclp__get_ransac_data_from_filename&#45;&gt;pointcloud__pointcloud_audit -->
<g id="edge10" class="edge">
<title>ransaclp__get_ransac_data_from_filename&#45;&gt;pointcloud__pointcloud_audit</title>
<path fill="none" stroke="#000000" d="M1608.58,-265.96C1662.23,-268.59 1720.22,-280.92 1763.36,-315 1799.77,-343.76 1764.45,-382.42 1799.36,-413 1818.62,-429.87 1843.58,-439.92 1868.58,-445.79"/>
<polygon fill="#000000" stroke="#000000" points="1868.01,-449.24 1878.52,-447.91 1869.47,-442.4 1868.01,-449.24"/>
</g>
<!-- ransaclp__get_ransac_data_from_filename&#45;&gt;pointcloud__pointcloud_sanitize -->
<g id="edge9" class="edge">
<title>ransaclp__get_ransac_data_from_filename&#45;&gt;pointcloud__pointcloud_sanitize</title>
<path fill="none" stroke="#000000" d="M1593.21,-262.34C1652.13,-262.33 1718.26,-273.65 1763.36,-315 1821.24,-368.08 1743.78,-432.51 1799.36,-488 1814.82,-503.44 1835.03,-513.09 1856.19,-518.98"/>
<polygon fill="#000000" stroke="#000000" points="1855.42,-522.4 1865.97,-521.43 1857.12,-515.61 1855.42,-522.4"/>
</g>
<!-- ransaclp__get_ransac_data_from_np_points -->
<g id="node11" class="node">
<title>ransaclp__get_ransac_data_from_np_points</title>
<ellipse fill="#e5fecc" fill-opacity="0.698039" stroke="black" cx="1974.72" cy="-197" rx="175.23" ry="26.74"/>
<text text-anchor="middle" x="1974.72" y="-200.8" font-family="Times,serif" font-size="14.00" fill="#000000">get_ransac_data_from_np_points</text>
<text text-anchor="middle" x="1974.72" y="-185.8" font-family="Times,serif" font-size="14.00" fill="#000000">(ransaclp.py:10)</text>
</g>
<!-- ransaclp__get_ransac_data_from_filename&#45;&gt;ransaclp__get_ransac_data_from_np_points -->
<g id="edge8" class="edge">
<title>ransaclp__get_ransac_data_from_filename&#45;&gt;ransaclp__get_ransac_data_from_np_points</title>
<path fill="none" stroke="#000000" d="M1604.45,-264.8C1654.84,-259.05 1711.75,-251.69 1763.36,-243 1798.17,-237.14 1835.92,-229.34 1869.71,-221.83"/>
<polygon fill="#000000" stroke="#000000" points="1870.6,-225.22 1879.59,-219.62 1869.07,-218.39 1870.6,-225.22"/>
</g>
<!-- ransaclp__get_ransaclp_data_from_filename -->
<g id="node12" class="node">
<title>ransaclp__get_ransaclp_data_from_filename</title>
<ellipse fill="#e5fecc" fill-opacity="0.698039" stroke="black" cx="818.02" cy="-279" rx="179.71" ry="26.74"/>
<text text-anchor="middle" x="818.02" y="-282.8" font-family="Times,serif" font-size="14.00" fill="#000000">get_ransaclp_data_from_filename</text>
<text text-anchor="middle" x="818.02" y="-267.8" font-family="Times,serif" font-size="14.00" fill="#000000">(ransaclp.py:494)</text>
</g>
<!-- ransaclp__get_ransaclp_data_from_filename&#45;&gt;ransaclp__get_lines_and_number_inliers_from_ransac_data_from_file -->
<g id="edge14" class="edge">
<title>ransaclp__get_ransaclp_data_from_filename&#45;&gt;ransaclp__get_lines_and_number_inliers_from_ransac_data_from_file</title>
<path fill="none" stroke="#000000" d="M962.25,-295.11C1050.41,-305.03 1164.67,-317.89 1261.38,-328.77"/>
<polygon fill="#000000" stroke="#000000" points="1261.25,-332.27 1271.57,-329.91 1262.03,-325.32 1261.25,-332.27"/>
</g>
<!-- ransaclp__get_ransaclp_data_from_filename&#45;&gt;ransaclp__get_n_percentile_from_list_sse_plane -->
<g id="edge12" class="edge">
<title>ransaclp__get_ransaclp_data_from_filename&#45;&gt;ransaclp__get_n_percentile_from_list_sse_plane</title>
<path fill="none" stroke="#000000" d="M988.8,-287.38C1034.92,-282.37 1082.59,-269.78 1120.66,-243 1149.92,-222.42 1127.39,-191.58 1156.66,-171 1185.71,-150.57 1220.34,-138.39 1255.61,-131.53"/>
<polygon fill="#000000" stroke="#000000" points="1256.36,-134.95 1265.58,-129.73 1255.11,-128.06 1256.36,-134.95"/>
</g>
<!-- ransaclp__get_ransaclp_data_from_filename&#45;&gt;ransaclp__get_ordered_list_sse_plane -->
<g id="edge15" class="edge">
<title>ransaclp__get_ransaclp_data_from_filename&#45;&gt;ransaclp__get_ordered_list_sse_plane</title>
<path fill="none" stroke="#000000" d="M962.25,-262.89C1070.49,-250.71 1218.06,-234.11 1324.2,-222.17"/>
<polygon fill="#000000" stroke="#000000" points="1324.79,-225.62 1334.34,-221.03 1324.01,-218.67 1324.79,-225.62"/>
</g>
<!-- ransaclp__get_ransaclp_data_from_filename&#45;&gt;ransaclp__get_ransac_data_from_filename -->
<g id="edge13" class="edge">
<title>ransaclp__get_ransaclp_data_from_filename&#45;&gt;ransaclp__get_ransac_data_from_filename</title>
<path fill="none" stroke="#000000" d="M997.72,-279C1085.85,-279 1191.88,-279 1280.05,-279"/>
<polygon fill="#000000" stroke="#000000" points="1280.16,-282.5 1290.16,-279 1280.16,-275.5 1280.16,-282.5"/>
</g>
<!-- ransaclp__get_ransaclp_data_from_np_points -->
<g id="node13" class="node">
<title>ransaclp__get_ransaclp_data_from_np_points</title>
<ellipse fill="#e5fecc" fill-opacity="0.698039" stroke="black" cx="818.02" cy="-207" rx="185.02" ry="26.74"/>
<text text-anchor="middle" x="818.02" y="-210.8" font-family="Times,serif" font-size="14.00" fill="#000000">get_ransaclp_data_from_np_points</text>
<text text-anchor="middle" x="818.02" y="-195.8" font-family="Times,serif" font-size="14.00" fill="#000000">(ransaclp.py:565)</text>
</g>
<!-- ransaclp__get_ransaclp_data_from_np_points&#45;&gt;ransaclp__get_lines_and_number_inliers_from_ransac_data_from_file -->
<g id="edge18" class="edge">
<title>ransaclp__get_ransaclp_data_from_np_points&#45;&gt;ransaclp__get_lines_and_number_inliers_from_ransac_data_from_file</title>
<path fill="none" stroke="#000000" d="M995.86,-199.45C1039.76,-204.95 1084.53,-217.59 1120.66,-243 1149.92,-263.58 1127.39,-294.42 1156.66,-315 1166.63,-322.01 1177.25,-328.05 1188.33,-333.23"/>
<polygon fill="#000000" stroke="#000000" points="1187.18,-336.55 1197.74,-337.39 1190.01,-330.15 1187.18,-336.55"/>
</g>
<!-- ransaclp__get_ransaclp_data_from_np_points&#45;&gt;ransaclp__get_n_percentile_from_list_sse_plane -->
<g id="edge16" class="edge">
<title>ransaclp__get_ransaclp_data_from_np_points&#45;&gt;ransaclp__get_n_percentile_from_list_sse_plane</title>
<path fill="none" stroke="#000000" d="M972.98,-192.24C1020.38,-187.41 1072.71,-181.79 1120.66,-176 1136.7,-174.06 1140.64,-173.07 1156.66,-171 1202.7,-165.06 1252.72,-158.96 1298.58,-153.51"/>
<polygon fill="#000000" stroke="#000000" points="1299.09,-156.98 1308.61,-152.32 1298.27,-150.02 1299.09,-156.98"/>
</g>
<!-- ransaclp__get_ransaclp_data_from_np_points&#45;&gt;ransaclp__get_ordered_list_sse_plane -->
<g id="edge19" class="edge">
<title>ransaclp__get_ransaclp_data_from_np_points&#45;&gt;ransaclp__get_ordered_list_sse_plane</title>
<path fill="none" stroke="#000000" d="M1003.7,-207C1098.36,-207 1212.39,-207 1302.66,-207"/>
<polygon fill="#000000" stroke="#000000" points="1302.7,-210.5 1312.7,-207 1302.7,-203.5 1302.7,-210.5"/>
</g>
<!-- ransaclp__get_ransaclp_data_from_np_points&#45;&gt;ransaclp__get_ransac_data_from_np_points -->
<g id="edge17" class="edge">
<title>ransaclp__get_ransaclp_data_from_np_points&#45;&gt;ransaclp__get_ransac_data_from_np_points</title>
<path fill="none" stroke="#000000" d="M980.84,-219.86C1029.49,-216.34 1080.54,-204.52 1120.66,-176 1151.45,-154.11 1124.79,-119.28 1156.66,-99 1185.1,-80.9 1730.45,-91.71 1763.36,-99 1821.08,-111.79 1881.74,-142.11 1923.01,-165.67"/>
<polygon fill="#000000" stroke="#000000" points="1921.36,-168.76 1931.77,-170.73 1924.87,-162.7 1921.36,-168.76"/>
</g>
<!-- ransaclpexperiments__compute_parameters_ransac_line -->
<g id="node14" class="node">
<title>ransaclpexperiments__compute_parameters_ransac_line</title>
<ellipse fill="#ccfefe" fill-opacity="0.698039" stroke="black" cx="818.02" cy="-452" rx="179.71" ry="26.74"/>
<text text-anchor="middle" x="818.02" y="-455.8" font-family="Times,serif" font-size="14.00" fill="#000000">compute_parameters_ransac_line</text>
<text text-anchor="middle" x="818.02" y="-440.8" font-family="Times,serif" font-size="14.00" fill="#000000">(ransaclpexperiments.py:82)</text>
</g>
<!-- ransaclpexperiments__get_baseline -->
<g id="node15" class="node">
<title>ransaclpexperiments__get_baseline</title>
<ellipse fill="#ccfefe" fill-opacity="0.698039" stroke="black" cx="818.02" cy="-524" rx="149.81" ry="26.74"/>
<text text-anchor="middle" x="818.02" y="-527.8" font-family="Times,serif" font-size="14.00" fill="#000000">get_baseline</text>
<text text-anchor="middle" x="818.02" y="-512.8" font-family="Times,serif" font-size="14.00" fill="#000000">(ransaclpexperiments.py:9)</text>
</g>
<!-- ransaclpexperiments__get_baseline_S3DIS -->
<g id="node16" class="node">
<title>ransaclpexperiments__get_baseline_S3DIS</title>
<ellipse fill="#ccfefe" fill-opacity="0.698039" stroke="black" cx="251.69" cy="-524" rx="156.04" ry="26.74"/>
<text text-anchor="middle" x="251.69" y="-527.8" font-family="Times,serif" font-size="14.00" fill="#000000">get_baseline_S3DIS</text>
<text text-anchor="middle" x="251.69" y="-512.8" font-family="Times,serif" font-size="14.00" fill="#000000">(ransaclpexperiments.py:41)</text>
</g>
<!-- ransaclpexperiments__get_baseline_S3DIS&#45;&gt;ransaclpexperiments__get_baseline -->
<g id="edge3" class="edge">
<title>ransaclpexperiments__get_baseline_S3DIS&#45;&gt;ransaclpexperiments__get_baseline</title>
<path fill="none" stroke="#000000" d="M408.01,-524C485.61,-524 579.36,-524 657.53,-524"/>
<polygon fill="#000000" stroke="#000000" points="657.96,-527.5 667.96,-524 657.96,-520.5 657.96,-527.5"/>
</g>
<!-- ransaclpexperiments__get_data_comparison_ransac_and_ransaclp -->
<g id="node17" class="node">
<title>ransaclpexperiments__get_data_comparison_ransac_and_ransaclp</title>
<ellipse fill="#ccfefe" fill-opacity="0.698039" stroke="black" cx="251.69" cy="-452" rx="227.88" ry="26.74"/>
<text text-anchor="middle" x="251.69" y="-455.8" font-family="Times,serif" font-size="14.00" fill="#000000">get_data_comparison_ransac_and_ransaclp</text>
<text text-anchor="middle" x="251.69" y="-440.8" font-family="Times,serif" font-size="14.00" fill="#000000">(ransaclpexperiments.py:114)</text>
</g>
<!-- ransaclpexperiments__get_data_comparison_ransac_and_ransaclp&#45;&gt;pointcloud__pointcloud_sanitize -->
<g id="edge6" class="edge">
<title>ransaclpexperiments__get_data_comparison_ransac_and_ransaclp&#45;&gt;pointcloud__pointcloud_sanitize</title>
<path fill="none" stroke="#000000" d="M443.55,-466.59C456.4,-472.21 468.52,-479.24 479.38,-488 506.1,-509.55 479.04,-540.61 507.38,-560 618.03,-635.69 1538.89,-562.49 1862.11,-534.14"/>
<polygon fill="#000000" stroke="#000000" points="1862.77,-537.6 1872.43,-533.23 1862.16,-530.62 1862.77,-537.6"/>
</g>
<!-- ransaclpexperiments__get_data_comparison_ransac_and_ransaclp&#45;&gt;ransaclp__get_ransaclp_data_from_np_points -->
<g id="edge4" class="edge">
<title>ransaclpexperiments__get_data_comparison_ransac_and_ransaclp&#45;&gt;ransaclp__get_ransaclp_data_from_np_points</title>
<path fill="none" stroke="#000000" d="M454.47,-439.69C463.47,-434.54 471.86,-428.37 479.38,-421 536.57,-364.94 449.62,-298.48 507.38,-243 550.73,-201.36 614.75,-189.08 673.35,-188.51"/>
<polygon fill="#000000" stroke="#000000" points="673.46,-192.01 683.46,-188.53 673.47,-185.01 673.46,-192.01"/>
</g>
<!-- ransaclpexperiments__get_data_comparison_ransac_and_ransaclp&#45;&gt;ransaclpexperiments__compute_parameters_ransac_line -->
<g id="edge5" class="edge">
<title>ransaclpexperiments__get_data_comparison_ransac_and_ransaclp&#45;&gt;ransaclpexperiments__compute_parameters_ransac_line</title>
<path fill="none" stroke="#000000" d="M479.38,-452C528.73,-452 580.44,-452 628.14,-452"/>
<polygon fill="#000000" stroke="#000000" points="628.26,-455.5 638.26,-452 628.26,-448.5 628.26,-455.5"/>
</g>
</g>
</svg>

