<?xml version="1.0" encoding="UTF-8" standalone="no"?>
<!DOCTYPE svg PUBLIC "-//W3C//DTD SVG 1.1//EN"
 "http://www.w3.org/Graphics/SVG/1.1/DTD/svg11.dtd">
<!-- Generated by graphviz version 2.43.0 (0)
 -->
<!-- Title: G Pages: 1 -->
<svg width="3359pt" height="1150pt"
 viewBox="0.00 0.00 3358.71 1150.00" xmlns="http://www.w3.org/2000/svg" xmlns:xlink="http://www.w3.org/1999/xlink">
<g id="graph0" class="graph" transform="scale(1 1) rotate(0) translate(4 1146)">
<title>G</title>
<polygon fill="white" stroke="transparent" points="-4,4 -4,-1146 3354.71,-1146 3354.71,4 -4,4"/>
<g id="clust1" class="cluster">
<title>cluster_G</title>
<path fill="#808080" fill-opacity="0.094118" stroke="black" d="M20,-8C20,-8 3330.71,-8 3330.71,-8 3336.71,-8 3342.71,-14 3342.71,-20 3342.71,-20 3342.71,-1122 3342.71,-1122 3342.71,-1128 3336.71,-1134 3330.71,-1134 3330.71,-1134 20,-1134 20,-1134 14,-1134 8,-1128 8,-1122 8,-1122 8,-20 8,-20 8,-14 14,-8 20,-8"/>
</g>
<g id="clust2" class="cluster">
<title>cluster_coreransaccuda</title>
<path fill="#808080" fill-opacity="0.094118" stroke="black" d="M669.28,-817C669.28,-817 3150.17,-817 3150.17,-817 3156.17,-817 3162.17,-823 3162.17,-829 3162.17,-829 3162.17,-1114 3162.17,-1114 3162.17,-1120 3156.17,-1126 3150.17,-1126 3150.17,-1126 669.28,-1126 669.28,-1126 663.28,-1126 657.28,-1120 657.28,-1114 657.28,-1114 657.28,-829 657.28,-829 657.28,-823 663.28,-817 669.28,-817"/>
<text text-anchor="middle" x="1909.73" y="-1110.8" font-family="Times,serif" font-size="14.00">coreransaccuda</text>
</g>
<g id="clust3" class="cluster">
<title>cluster_crs</title>
<path fill="#808080" fill-opacity="0.094118" stroke="black" d="M957.08,-572C957.08,-572 3322.71,-572 3322.71,-572 3328.71,-572 3334.71,-578 3334.71,-584 3334.71,-584 3334.71,-797 3334.71,-797 3334.71,-803 3328.71,-809 3322.71,-809 3322.71,-809 957.08,-809 957.08,-809 951.08,-809 945.08,-803 945.08,-797 945.08,-797 945.08,-584 945.08,-584 945.08,-578 951.08,-572 957.08,-572"/>
<text text-anchor="middle" x="2139.89" y="-793.8" font-family="Times,serif" font-size="14.00">crs</text>
</g>
<g id="clust4" class="cluster">
<title>cluster_pointcloud</title>
<path fill="#808080" fill-opacity="0.094118" stroke="black" d="M1977.37,-62C1977.37,-62 2187.16,-62 2187.16,-62 2193.16,-62 2199.16,-68 2199.16,-74 2199.16,-74 2199.16,-215 2199.16,-215 2199.16,-221 2193.16,-227 2187.16,-227 2187.16,-227 1977.37,-227 1977.37,-227 1971.37,-227 1965.37,-221 1965.37,-215 1965.37,-215 1965.37,-74 1965.37,-74 1965.37,-68 1971.37,-62 1977.37,-62"/>
<text text-anchor="middle" x="2082.26" y="-211.8" font-family="Times,serif" font-size="14.00">pointcloud</text>
</g>
<g id="clust5" class="cluster">
<title>cluster_ransaclp</title>
<path fill="#808080" fill-opacity="0.094118" stroke="black" d="M28,-235C28,-235 2253.63,-235 2253.63,-235 2259.63,-235 2265.63,-241 2265.63,-247 2265.63,-247 2265.63,-552 2265.63,-552 2265.63,-558 2259.63,-564 2253.63,-564 2253.63,-564 28,-564 28,-564 22,-564 16,-558 16,-552 16,-552 16,-247 16,-247 16,-241 22,-235 28,-235"/>
<text text-anchor="middle" x="1140.81" y="-548.8" font-family="Times,serif" font-size="14.00">ransaclp</text>
</g>
<!-- coreransaccuda -->
<g id="node1" class="node">
<title>coreransaccuda</title>
<ellipse fill="#ffffff" fill-opacity="0.698039" stroke="black" cx="1157.43" cy="-34" rx="83.39" ry="18"/>
<text text-anchor="middle" x="1157.43" y="-30.3" font-family="Times,serif" font-size="14.00" fill="#000000">coreransaccuda</text>
</g>
<!-- crs -->
<g id="node2" class="node">
<title>crs</title>
<ellipse fill="#ffffff" fill-opacity="0.698039" stroke="black" cx="2082.26" cy="-34" rx="27" ry="18"/>
<text text-anchor="middle" x="2082.26" y="-30.3" font-family="Times,serif" font-size="14.00" fill="#000000">crs</text>
</g>
<!-- coreransaccuda&#45;&gt;crs -->
<g id="edge21" class="edge">
<title>coreransaccuda&#45;&gt;crs</title>
<path fill="none" stroke="#000000" d="M1240.73,-34C1433.85,-34 1909.96,-34 2045.02,-34"/>
<polygon fill="#000000" stroke="#000000" points="2045.23,-37.5 2055.23,-34 2045.23,-30.5 2045.23,-37.5"/>
</g>
<!-- pointcloud -->
<g id="node3" class="node">
<title>pointcloud</title>
<ellipse fill="#ffffff" fill-opacity="0.698039" stroke="black" cx="1157.43" cy="-108" rx="59.59" ry="18"/>
<text text-anchor="middle" x="1157.43" y="-104.3" font-family="Times,serif" font-size="14.00" fill="#000000">pointcloud</text>
</g>
<!-- ransaclp -->
<g id="node4" class="node">
<title>ransaclp</title>
<ellipse fill="#ffffff" fill-opacity="0.698039" stroke="black" cx="326.64" cy="-71" rx="50.09" ry="18"/>
<text text-anchor="middle" x="326.64" y="-67.3" font-family="Times,serif" font-size="14.00" fill="#000000">ransaclp</text>
</g>
<!-- ransaclp&#45;&gt;coreransaccuda -->
<g id="edge2" class="edge">
<title>ransaclp&#45;&gt;coreransaccuda</title>
<path fill="none" stroke="#000000" d="M376.39,-68.82C511.11,-62.81 890.08,-45.89 1065.38,-38.06"/>
<polygon fill="#000000" stroke="#000000" points="1065.78,-41.55 1075.61,-37.61 1065.47,-34.56 1065.78,-41.55"/>
</g>
<!-- ransaclp&#45;&gt;crs -->
<g id="edge3" class="edge">
<title>ransaclp&#45;&gt;crs</title>
<path fill="none" stroke="#000000" d="M376.89,-71.97C550.93,-75.1 1153.2,-83.53 1649.58,-61 1665.61,-60.27 1669.56,-59.15 1685.58,-58 1818.12,-48.46 1975.82,-39.66 2045.33,-35.91"/>
<polygon fill="#000000" stroke="#000000" points="2045.53,-39.4 2055.32,-35.37 2045.15,-32.41 2045.53,-39.4"/>
</g>
<!-- ransaclp&#45;&gt;pointcloud -->
<g id="edge1" class="edge">
<title>ransaclp&#45;&gt;pointcloud</title>
<path fill="none" stroke="#000000" d="M376.39,-73.18C517.13,-79.46 924.4,-97.64 1087.6,-104.93"/>
<polygon fill="#000000" stroke="#000000" points="1087.84,-108.44 1097.99,-105.39 1088.16,-101.45 1087.84,-108.44"/>
</g>
<!-- coreransaccuda__get_how_many_and_which_below_threshold_between_plane_and_points_and_their_indices_cuda -->
<g id="node5" class="node">
<title>coreransaccuda__get_how_many_and_which_below_threshold_between_plane_and_points_and_their_indices_cuda</title>
<ellipse fill="#fecccc" fill-opacity="0.698039" stroke="black" cx="1157.43" cy="-1068" rx="492.29" ry="26.74"/>
<text text-anchor="middle" x="1157.43" y="-1071.8" font-family="Times,serif" font-size="14.00" fill="#000000">get_how_many_and_which_below_threshold_between_plane_and_points_and_their_indices_cuda</text>
<text text-anchor="middle" x="1157.43" y="-1056.8" font-family="Times,serif" font-size="14.00" fill="#000000">(coreransaccuda.py:201)</text>
</g>
<!-- coreransaccuda__get_how_many_and_which_below_threshold_kernel -->
<g id="node6" class="node">
<title>coreransaccuda__get_how_many_and_which_below_threshold_kernel</title>
<ellipse fill="#fecccc" fill-opacity="0.698039" stroke="black" cx="2082.26" cy="-1068" rx="267.99" ry="26.74"/>
<text text-anchor="middle" x="2082.26" y="-1071.8" font-family="Times,serif" font-size="14.00" fill="#000000">get_how_many_and_which_below_threshold_kernel</text>
<text text-anchor="middle" x="2082.26" y="-1056.8" font-family="Times,serif" font-size="14.00" fill="#000000">(coreransaccuda.py:13)</text>
</g>
<!-- coreransaccuda__get_how_many_and_which_below_threshold_between_plane_and_points_and_their_indices_cuda&#45;&gt;coreransaccuda__get_how_many_and_which_below_threshold_kernel -->
<g id="edge23" class="edge">
<title>coreransaccuda__get_how_many_and_which_below_threshold_between_plane_and_points_and_their_indices_cuda&#45;&gt;coreransaccuda__get_how_many_and_which_below_threshold_kernel</title>
<path fill="none" stroke="#000000" d="M1649.91,-1068C1702.73,-1068 1755.03,-1068 1804.01,-1068"/>
<polygon fill="#000000" stroke="#000000" points="1804.09,-1071.5 1814.09,-1068 1804.09,-1064.5 1804.09,-1071.5"/>
</g>
<!-- coreransaccuda__get_how_many_below_threshold_between_line_and_points_cuda -->
<g id="node7" class="node">
<title>coreransaccuda__get_how_many_below_threshold_between_line_and_points_cuda</title>
<ellipse fill="#fecccc" fill-opacity="0.698039" stroke="black" cx="2082.26" cy="-924" rx="332.18" ry="26.74"/>
<text text-anchor="middle" x="2082.26" y="-927.8" font-family="Times,serif" font-size="14.00" fill="#000000">get_how_many_below_threshold_between_line_and_points_cuda</text>
<text text-anchor="middle" x="2082.26" y="-912.8" font-family="Times,serif" font-size="14.00" fill="#000000">(coreransaccuda.py:154)</text>
</g>
<!-- coreransaccuda__get_how_many_line_below_threshold_kernel -->
<g id="node10" class="node">
<title>coreransaccuda__get_how_many_line_below_threshold_kernel</title>
<ellipse fill="#fecccc" fill-opacity="0.698039" stroke="black" cx="2920.83" cy="-924" rx="233.19" ry="26.74"/>
<text text-anchor="middle" x="2920.83" y="-927.8" font-family="Times,serif" font-size="14.00" fill="#000000">get_how_many_line_below_threshold_kernel</text>
<text text-anchor="middle" x="2920.83" y="-912.8" font-family="Times,serif" font-size="14.00" fill="#000000">(coreransaccuda.py:77)</text>
</g>
<!-- coreransaccuda__get_how_many_below_threshold_between_line_and_points_cuda&#45;&gt;coreransaccuda__get_how_many_line_below_threshold_kernel -->
<g id="edge22" class="edge">
<title>coreransaccuda__get_how_many_below_threshold_between_line_and_points_cuda&#45;&gt;coreransaccuda__get_how_many_line_below_threshold_kernel</title>
<path fill="none" stroke="#000000" d="M2414.8,-924C2502.41,-924 2595.32,-924 2677.25,-924"/>
<polygon fill="#000000" stroke="#000000" points="2677.45,-927.5 2687.45,-924 2677.45,-920.5 2677.45,-927.5"/>
</g>
<!-- coreransaccuda__get_how_many_below_threshold_between_plane_and_points_cuda -->
<g id="node8" class="node">
<title>coreransaccuda__get_how_many_below_threshold_between_plane_and_points_cuda</title>
<ellipse fill="#fecccc" fill-opacity="0.698039" stroke="black" cx="1157.43" cy="-996" rx="341.57" ry="26.74"/>
<text text-anchor="middle" x="1157.43" y="-999.8" font-family="Times,serif" font-size="14.00" fill="#000000">get_how_many_below_threshold_between_plane_and_points_cuda</text>
<text text-anchor="middle" x="1157.43" y="-984.8" font-family="Times,serif" font-size="14.00" fill="#000000">(coreransaccuda.py:259)</text>
</g>
<!-- coreransaccuda__get_how_many_below_threshold_kernel -->
<g id="node9" class="node">
<title>coreransaccuda__get_how_many_below_threshold_kernel</title>
<ellipse fill="#fecccc" fill-opacity="0.698039" stroke="black" cx="2082.26" cy="-996" rx="210.02" ry="26.74"/>
<text text-anchor="middle" x="2082.26" y="-999.8" font-family="Times,serif" font-size="14.00" fill="#000000">get_how_many_below_threshold_kernel</text>
<text text-anchor="middle" x="2082.26" y="-984.8" font-family="Times,serif" font-size="14.00" fill="#000000">(coreransaccuda.py:45)</text>
</g>
<!-- coreransaccuda__get_how_many_below_threshold_between_plane_and_points_cuda&#45;&gt;coreransaccuda__get_how_many_below_threshold_kernel -->
<g id="edge24" class="edge">
<title>coreransaccuda__get_how_many_below_threshold_between_plane_and_points_cuda&#45;&gt;coreransaccuda__get_how_many_below_threshold_kernel</title>
<path fill="none" stroke="#000000" d="M1499.11,-996C1620.38,-996 1753.61,-996 1861.98,-996"/>
<polygon fill="#000000" stroke="#000000" points="1862.06,-999.5 1872.06,-996 1862.06,-992.5 1862.06,-999.5"/>
</g>
<!-- coreransaccuda__get_ransac_iteration_results_cuda -->
<g id="node11" class="node">
<title>coreransaccuda__get_ransac_iteration_results_cuda</title>
<ellipse fill="#fecccc" fill-opacity="0.698039" stroke="black" cx="2082.26" cy="-852" rx="183.28" ry="26.74"/>
<text text-anchor="middle" x="2082.26" y="-855.8" font-family="Times,serif" font-size="14.00" fill="#000000">get_ransac_iteration_results_cuda</text>
<text text-anchor="middle" x="2082.26" y="-840.8" font-family="Times,serif" font-size="14.00" fill="#000000">(coreransaccuda.py:357)</text>
</g>
<!-- coreransaccuda__get_ransac_line_iteration_results_cuda -->
<g id="node12" class="node">
<title>coreransaccuda__get_ransac_line_iteration_results_cuda</title>
<ellipse fill="#fecccc" fill-opacity="0.698039" stroke="black" cx="1157.43" cy="-924" rx="206.45" ry="26.74"/>
<text text-anchor="middle" x="1157.43" y="-927.8" font-family="Times,serif" font-size="14.00" fill="#000000">get_ransac_line_iteration_results_cuda</text>
<text text-anchor="middle" x="1157.43" y="-912.8" font-family="Times,serif" font-size="14.00" fill="#000000">(coreransaccuda.py:312)</text>
</g>
<!-- coreransaccuda__get_ransac_line_iteration_results_cuda&#45;&gt;coreransaccuda__get_how_many_below_threshold_between_line_and_points_cuda -->
<g id="edge25" class="edge">
<title>coreransaccuda__get_ransac_line_iteration_results_cuda&#45;&gt;coreransaccuda__get_how_many_below_threshold_between_line_and_points_cuda</title>
<path fill="none" stroke="#000000" d="M1364.1,-924C1474.51,-924 1613.48,-924 1739.62,-924"/>
<polygon fill="#000000" stroke="#000000" points="1739.84,-927.5 1749.84,-924 1739.84,-920.5 1739.84,-927.5"/>
</g>
<!-- coreransaccuda__get_ransac_results_cuda -->
<g id="node13" class="node">
<title>coreransaccuda__get_ransac_results_cuda</title>
<ellipse fill="#fecccc" fill-opacity="0.698039" stroke="black" cx="1157.43" cy="-852" rx="135.53" ry="26.74"/>
<text text-anchor="middle" x="1157.43" y="-855.8" font-family="Times,serif" font-size="14.00" fill="#000000">get_ransac_results_cuda</text>
<text text-anchor="middle" x="1157.43" y="-840.8" font-family="Times,serif" font-size="14.00" fill="#000000">(coreransaccuda.py:403)</text>
</g>
<!-- coreransaccuda__get_ransac_results_cuda&#45;&gt;coreransaccuda__get_ransac_iteration_results_cuda -->
<g id="edge26" class="edge">
<title>coreransaccuda__get_ransac_results_cuda&#45;&gt;coreransaccuda__get_ransac_iteration_results_cuda</title>
<path fill="none" stroke="#000000" d="M1293.61,-852C1450.59,-852 1710.73,-852 1888.78,-852"/>
<polygon fill="#000000" stroke="#000000" points="1888.79,-855.5 1898.79,-852 1888.79,-848.5 1888.79,-855.5"/>
</g>
<!-- crs__get_best_fitting_data_from_list_planes -->
<g id="node14" class="node">
<title>crs__get_best_fitting_data_from_list_planes</title>
<ellipse fill="#f4fecc" fill-opacity="0.698039" stroke="black" cx="1157.43" cy="-679" rx="204.21" ry="26.74"/>
<text text-anchor="middle" x="1157.43" y="-682.8" font-family="Times,serif" font-size="14.00" fill="#000000">get_best_fitting_data_from_list_planes</text>
<text text-anchor="middle" x="1157.43" y="-667.8" font-family="Times,serif" font-size="14.00" fill="#000000">(crs.py:446)</text>
</g>
<!-- crs__get_fitting_data_from_list_planes -->
<g id="node15" class="node">
<title>crs__get_fitting_data_from_list_planes</title>
<ellipse fill="#f4fecc" fill-opacity="0.698039" stroke="black" cx="2082.26" cy="-679" rx="177.47" ry="26.74"/>
<text text-anchor="middle" x="2082.26" y="-682.8" font-family="Times,serif" font-size="14.00" fill="#000000">get_fitting_data_from_list_planes</text>
<text text-anchor="middle" x="2082.26" y="-667.8" font-family="Times,serif" font-size="14.00" fill="#000000">(crs.py:399)</text>
</g>
<!-- crs__get_best_fitting_data_from_list_planes&#45;&gt;crs__get_fitting_data_from_list_planes -->
<g id="edge31" class="edge">
<title>crs__get_best_fitting_data_from_list_planes&#45;&gt;crs__get_fitting_data_from_list_planes</title>
<path fill="none" stroke="#000000" d="M1361.81,-679C1520.72,-679 1739.83,-679 1894.37,-679"/>
<polygon fill="#000000" stroke="#000000" points="1894.45,-682.5 1904.45,-679 1894.45,-675.5 1894.45,-682.5"/>
</g>
<!-- crs__get_how_many_below_threshold_between_plane_and_points_and_their_indices -->
<g id="node17" class="node">
<title>crs__get_how_many_below_threshold_between_plane_and_points_and_their_indices</title>
<ellipse fill="#f4fecc" fill-opacity="0.698039" stroke="black" cx="2920.83" cy="-643" rx="405.76" ry="26.74"/>
<text text-anchor="middle" x="2920.83" y="-646.8" font-family="Times,serif" font-size="14.00" fill="#000000">get_how_many_below_threshold_between_plane_and_points_and_their_indices</text>
<text text-anchor="middle" x="2920.83" y="-631.8" font-family="Times,serif" font-size="14.00" fill="#000000">(crs.py:180)</text>
</g>
<!-- crs__get_fitting_data_from_list_planes&#45;&gt;crs__get_how_many_below_threshold_between_plane_and_points_and_their_indices -->
<g id="edge30" class="edge">
<title>crs__get_fitting_data_from_list_planes&#45;&gt;crs__get_how_many_below_threshold_between_plane_and_points_and_their_indices</title>
<path fill="none" stroke="#000000" d="M2253.31,-671.68C2344.45,-667.76 2460.21,-662.78 2569.6,-658.07"/>
<polygon fill="#000000" stroke="#000000" points="2569.99,-661.56 2579.83,-657.63 2569.68,-654.56 2569.99,-661.56"/>
</g>
<!-- crs__get_how_many_below_threshold_between_line_and_points_and_their_indices -->
<g id="node16" class="node">
<title>crs__get_how_many_below_threshold_between_line_and_points_and_their_indices</title>
<ellipse fill="#f4fecc" fill-opacity="0.698039" stroke="black" cx="2082.26" cy="-751" rx="396.87" ry="26.74"/>
<text text-anchor="middle" x="2082.26" y="-754.8" font-family="Times,serif" font-size="14.00" fill="#000000">get_how_many_below_threshold_between_line_and_points_and_their_indices</text>
<text text-anchor="middle" x="2082.26" y="-739.8" font-family="Times,serif" font-size="14.00" fill="#000000">(crs.py:91)</text>
</g>
<!-- crs__get_ransac_line_iteration_results -->
<g id="node18" class="node">
<title>crs__get_ransac_line_iteration_results</title>
<ellipse fill="#f4fecc" fill-opacity="0.698039" stroke="black" cx="1157.43" cy="-751" rx="177.47" ry="26.74"/>
<text text-anchor="middle" x="1157.43" y="-754.8" font-family="Times,serif" font-size="14.00" fill="#000000">get_ransac_line_iteration_results</text>
<text text-anchor="middle" x="1157.43" y="-739.8" font-family="Times,serif" font-size="14.00" fill="#000000">(crs.py:226)</text>
</g>
<!-- crs__get_ransac_line_iteration_results&#45;&gt;crs__get_how_many_below_threshold_between_line_and_points_and_their_indices -->
<g id="edge27" class="edge">
<title>crs__get_ransac_line_iteration_results&#45;&gt;crs__get_how_many_below_threshold_between_line_and_points_and_their_indices</title>
<path fill="none" stroke="#000000" d="M1335,-751C1431.82,-751 1556.14,-751 1675.43,-751"/>
<polygon fill="#000000" stroke="#000000" points="1675.48,-754.5 1685.48,-751 1675.48,-747.5 1675.48,-754.5"/>
</g>
<!-- crs__get_ransac_plane_iteration_results -->
<g id="node19" class="node">
<title>crs__get_ransac_plane_iteration_results</title>
<ellipse fill="#f4fecc" fill-opacity="0.698039" stroke="black" cx="2082.26" cy="-607" rx="186.85" ry="26.74"/>
<text text-anchor="middle" x="2082.26" y="-610.8" font-family="Times,serif" font-size="14.00" fill="#000000">get_ransac_plane_iteration_results</text>
<text text-anchor="middle" x="2082.26" y="-595.8" font-family="Times,serif" font-size="14.00" fill="#000000">(crs.py:250)</text>
</g>
<!-- crs__get_ransac_plane_iteration_results&#45;&gt;crs__get_how_many_below_threshold_between_plane_and_points_and_their_indices -->
<g id="edge28" class="edge">
<title>crs__get_ransac_plane_iteration_results&#45;&gt;crs__get_how_many_below_threshold_between_plane_and_points_and_their_indices</title>
<path fill="none" stroke="#000000" d="M2261.45,-614.67C2351.27,-618.53 2463.43,-623.36 2569.58,-627.93"/>
<polygon fill="#000000" stroke="#000000" points="2569.7,-631.44 2579.84,-628.37 2570,-624.44 2569.7,-631.44"/>
</g>
<!-- crs__get_ransac_plane_results -->
<g id="node20" class="node">
<title>crs__get_ransac_plane_results</title>
<ellipse fill="#f4fecc" fill-opacity="0.698039" stroke="black" cx="1157.43" cy="-607" rx="138.69" ry="26.74"/>
<text text-anchor="middle" x="1157.43" y="-610.8" font-family="Times,serif" font-size="14.00" fill="#000000">get_ransac_plane_results</text>
<text text-anchor="middle" x="1157.43" y="-595.8" font-family="Times,serif" font-size="14.00" fill="#000000">(crs.py:319)</text>
</g>
<!-- crs__get_ransac_plane_results&#45;&gt;crs__get_ransac_plane_iteration_results -->
<g id="edge29" class="edge">
<title>crs__get_ransac_plane_results&#45;&gt;crs__get_ransac_plane_iteration_results</title>
<path fill="none" stroke="#000000" d="M1296.09,-607C1452.21,-607 1708.01,-607 1885.01,-607"/>
<polygon fill="#000000" stroke="#000000" points="1885.23,-610.5 1895.23,-607 1885.23,-603.5 1885.23,-610.5"/>
</g>
<!-- pointcloud__pointcloud_audit -->
<g id="node21" class="node">
<title>pointcloud__pointcloud_audit</title>
<ellipse fill="#ccfee0" fill-opacity="0.698039" stroke="black" cx="2082.26" cy="-169" rx="96.75" ry="26.74"/>
<text text-anchor="middle" x="2082.26" y="-172.8" font-family="Times,serif" font-size="14.00" fill="#000000">pointcloud_audit</text>
<text text-anchor="middle" x="2082.26" y="-157.8" font-family="Times,serif" font-size="14.00" fill="#000000">(pointcloud.py:5)</text>
</g>
<!-- pointcloud__pointcloud_sanitize -->
<g id="node22" class="node">
<title>pointcloud__pointcloud_sanitize</title>
<ellipse fill="#ccfee0" fill-opacity="0.698039" stroke="black" cx="2082.26" cy="-97" rx="108.79" ry="26.74"/>
<text text-anchor="middle" x="2082.26" y="-100.8" font-family="Times,serif" font-size="14.00" fill="#000000">pointcloud_sanitize</text>
<text text-anchor="middle" x="2082.26" y="-85.8" font-family="Times,serif" font-size="14.00" fill="#000000">(pointcloud.py:39)</text>
</g>
<!-- ransaclp__get_lines_and_number_inliers_from_ransac_data_from_file -->
<g id="node23" class="node">
<title>ransaclp__get_lines_and_number_inliers_from_ransac_data_from_file</title>
<ellipse fill="#cce0fe" fill-opacity="0.698039" stroke="black" cx="1157.43" cy="-486" rx="303.2" ry="26.74"/>
<text text-anchor="middle" x="1157.43" y="-489.8" font-family="Times,serif" font-size="14.00" fill="#000000">get_lines_and_number_inliers_from_ransac_data_from_file</text>
<text text-anchor="middle" x="1157.43" y="-474.8" font-family="Times,serif" font-size="14.00" fill="#000000">(ransaclp.py:297)</text>
</g>
<!-- ransaclp__get_lines_and_number_inliers_ordered_by_number_inliers -->
<g id="node24" class="node">
<title>ransaclp__get_lines_and_number_inliers_ordered_by_number_inliers</title>
<ellipse fill="#cce0fe" fill-opacity="0.698039" stroke="black" cx="326.64" cy="-486" rx="302.78" ry="26.74"/>
<text text-anchor="middle" x="326.64" y="-489.8" font-family="Times,serif" font-size="14.00" fill="#000000">get_lines_and_number_inliers_ordered_by_number_inliers</text>
<text text-anchor="middle" x="326.64" y="-474.8" font-family="Times,serif" font-size="14.00" fill="#000000">(ransaclp.py:305)</text>
</g>
<!-- ransaclp__get_lines_and_number_inliers_ordered_by_number_inliers&#45;&gt;ransaclp__get_lines_and_number_inliers_from_ransac_data_from_file -->
<g id="edge7" class="edge">
<title>ransaclp__get_lines_and_number_inliers_ordered_by_number_inliers&#45;&gt;ransaclp__get_lines_and_number_inliers_from_ransac_data_from_file</title>
<path fill="none" stroke="#000000" d="M629.49,-486C699.18,-486 773.45,-486 843.59,-486"/>
<polygon fill="#000000" stroke="#000000" points="843.91,-489.5 853.91,-486 843.91,-482.5 843.91,-489.5"/>
</g>
<!-- ransaclp__get_n_percentile_from_list_sse_plane -->
<g id="node25" class="node">
<title>ransaclp__get_n_percentile_from_list_sse_plane</title>
<ellipse fill="#cce0fe" fill-opacity="0.698039" stroke="black" cx="1157.43" cy="-414" rx="197.98" ry="26.74"/>
<text text-anchor="middle" x="1157.43" y="-417.8" font-family="Times,serif" font-size="14.00" fill="#000000">get_n_percentile_from_list_sse_plane</text>
<text text-anchor="middle" x="1157.43" y="-402.8" font-family="Times,serif" font-size="14.00" fill="#000000">(ransaclp.py:430)</text>
</g>
<!-- ransaclp__get_ordered_list_sse_plane -->
<g id="node26" class="node">
<title>ransaclp__get_ordered_list_sse_plane</title>
<ellipse fill="#cce0fe" fill-opacity="0.698039" stroke="black" cx="1157.43" cy="-342" rx="147.16" ry="26.74"/>
<text text-anchor="middle" x="1157.43" y="-345.8" font-family="Times,serif" font-size="14.00" fill="#000000">get_ordered_list_sse_plane</text>
<text text-anchor="middle" x="1157.43" y="-330.8" font-family="Times,serif" font-size="14.00" fill="#000000">(ransaclp.py:354)</text>
</g>
<!-- ransaclp__get_ransac_data_from_filename -->
<g id="node27" class="node">
<title>ransaclp__get_ransac_data_from_filename</title>
<ellipse fill="#cce0fe" fill-opacity="0.698039" stroke="black" cx="1157.43" cy="-270" rx="169.91" ry="26.74"/>
<text text-anchor="middle" x="1157.43" y="-273.8" font-family="Times,serif" font-size="14.00" fill="#000000">get_ransac_data_from_filename</text>
<text text-anchor="middle" x="1157.43" y="-258.8" font-family="Times,serif" font-size="14.00" fill="#000000">(ransaclp.py:141)</text>
</g>
<!-- ransaclp__get_ransac_data_from_filename&#45;&gt;pointcloud__pointcloud_audit -->
<g id="edge4" class="edge">
<title>ransaclp__get_ransac_data_from_filename&#45;&gt;pointcloud__pointcloud_audit</title>
<path fill="none" stroke="#000000" d="M1325.32,-265.91C1420.67,-261.97 1542.25,-254.22 1649.58,-239 1665.8,-236.7 1669.47,-234.05 1685.58,-231 1787.46,-211.72 1904.91,-193.86 1985.22,-182.31"/>
<polygon fill="#000000" stroke="#000000" points="1985.91,-185.75 1995.32,-180.87 1984.92,-178.82 1985.91,-185.75"/>
</g>
<!-- ransaclp__get_ransac_data_from_filename&#45;&gt;pointcloud__pointcloud_sanitize -->
<g id="edge6" class="edge">
<title>ransaclp__get_ransac_data_from_filename&#45;&gt;pointcloud__pointcloud_sanitize</title>
<path fill="none" stroke="#000000" d="M1318.55,-278.58C1441.74,-281.82 1599.16,-277.59 1649.58,-239 1689.09,-208.76 1646.49,-163.78 1685.58,-133 1770.5,-66.12 1899.73,-67.63 1987.19,-78.86"/>
<polygon fill="#000000" stroke="#000000" points="1986.74,-82.33 1997.12,-80.2 1987.67,-75.4 1986.74,-82.33"/>
</g>
<!-- ransaclp__get_ransac_data_from_np_points -->
<g id="node28" class="node">
<title>ransaclp__get_ransac_data_from_np_points</title>
<ellipse fill="#cce0fe" fill-opacity="0.698039" stroke="black" cx="2082.26" cy="-388" rx="175.23" ry="26.74"/>
<text text-anchor="middle" x="2082.26" y="-391.8" font-family="Times,serif" font-size="14.00" fill="#000000">get_ransac_data_from_np_points</text>
<text text-anchor="middle" x="2082.26" y="-376.8" font-family="Times,serif" font-size="14.00" fill="#000000">(ransaclp.py:10)</text>
</g>
<!-- ransaclp__get_ransac_data_from_filename&#45;&gt;ransaclp__get_ransac_data_from_np_points -->
<g id="edge5" class="edge">
<title>ransaclp__get_ransac_data_from_filename&#45;&gt;ransaclp__get_ransac_data_from_np_points</title>
<path fill="none" stroke="#000000" d="M1320.94,-277.23C1416.84,-282.66 1540.43,-291.68 1649.58,-306 1760.28,-320.52 1885.5,-345.24 1972.46,-363.75"/>
<polygon fill="#000000" stroke="#000000" points="1971.83,-367.2 1982.34,-365.86 1973.29,-360.35 1971.83,-367.2"/>
</g>
<!-- ransaclp__get_ransaclp_data_from_filename -->
<g id="node29" class="node">
<title>ransaclp__get_ransaclp_data_from_filename</title>
<ellipse fill="#cce0fe" fill-opacity="0.698039" stroke="black" cx="326.64" cy="-342" rx="179.71" ry="26.74"/>
<text text-anchor="middle" x="326.64" y="-345.8" font-family="Times,serif" font-size="14.00" fill="#000000">get_ransaclp_data_from_filename</text>
<text text-anchor="middle" x="326.64" y="-330.8" font-family="Times,serif" font-size="14.00" fill="#000000">(ransaclp.py:494)</text>
</g>
<!-- ransaclp__get_ransaclp_data_from_filename&#45;&gt;crs__get_best_fitting_data_from_list_planes -->
<g id="edge11" class="edge">
<title>ransaclp__get_ransaclp_data_from_filename&#45;&gt;crs__get_best_fitting_data_from_list_planes</title>
<path fill="none" stroke="#000000" d="M457.24,-323.5C517.5,-322.49 585.39,-333.51 629.28,-378 670.87,-420.15 614.72,-601.83 657.28,-643 699.88,-684.2 838.81,-691.71 959.32,-689.74"/>
<polygon fill="#000000" stroke="#000000" points="959.5,-693.24 969.43,-689.56 959.37,-686.24 959.5,-693.24"/>
</g>
<!-- ransaclp__get_ransaclp_data_from_filename&#45;&gt;crs__get_ransac_line_iteration_results -->
<g id="edge12" class="edge">
<title>ransaclp__get_ransaclp_data_from_filename&#45;&gt;crs__get_ransac_line_iteration_results</title>
<path fill="none" stroke="#000000" d="M454.62,-323.14C515.74,-321.61 585.16,-332.26 629.28,-378 681.46,-432.08 603.86,-662.15 657.28,-715 762.21,-818.79 947.67,-800.69 1060.58,-776.76"/>
<polygon fill="#000000" stroke="#000000" points="1061.58,-780.13 1070.6,-774.58 1060.09,-773.29 1061.58,-780.13"/>
</g>
<!-- ransaclp__get_ransaclp_data_from_filename&#45;&gt;ransaclp__get_lines_and_number_inliers_from_ransac_data_from_file -->
<g id="edge13" class="edge">
<title>ransaclp__get_ransaclp_data_from_filename&#45;&gt;ransaclp__get_lines_and_number_inliers_from_ransac_data_from_file</title>
<path fill="none" stroke="#000000" d="M488.9,-330.42C538.21,-334.5 589.79,-347.39 629.28,-378 656.42,-399.03 629.66,-429.61 657.28,-450 762.94,-528 917.84,-526.44 1027.01,-512.08"/>
<polygon fill="#000000" stroke="#000000" points="1027.66,-515.52 1037.09,-510.7 1026.71,-508.59 1027.66,-515.52"/>
</g>
<!-- ransaclp__get_ransaclp_data_from_filename&#45;&gt;ransaclp__get_n_percentile_from_list_sse_plane -->
<g id="edge10" class="edge">
<title>ransaclp__get_ransaclp_data_from_filename&#45;&gt;ransaclp__get_n_percentile_from_list_sse_plane</title>
<path fill="none" stroke="#000000" d="M468.69,-358.56C527.02,-365.1 595.36,-372.39 657.28,-378 759.66,-387.28 874.02,-395.67 967.42,-402.01"/>
<polygon fill="#000000" stroke="#000000" points="967.33,-405.51 977.55,-402.7 967.81,-398.53 967.33,-405.51"/>
</g>
<!-- ransaclp__get_ransaclp_data_from_filename&#45;&gt;ransaclp__get_ordered_list_sse_plane -->
<g id="edge9" class="edge">
<title>ransaclp__get_ransaclp_data_from_filename&#45;&gt;ransaclp__get_ordered_list_sse_plane</title>
<path fill="none" stroke="#000000" d="M506.46,-342C653.27,-342 859.17,-342 999.63,-342"/>
<polygon fill="#000000" stroke="#000000" points="1000.05,-345.5 1010.05,-342 1000.05,-338.5 1000.05,-345.5"/>
</g>
<!-- ransaclp__get_ransaclp_data_from_filename&#45;&gt;ransaclp__get_ransac_data_from_filename -->
<g id="edge8" class="edge">
<title>ransaclp__get_ransaclp_data_from_filename&#45;&gt;ransaclp__get_ransac_data_from_filename</title>
<path fill="none" stroke="#000000" d="M481.75,-328.39C529.16,-323.6 581.45,-317.72 629.28,-311 641.8,-309.24 644.74,-307.57 657.28,-306 765.53,-292.47 887.66,-283.55 984.02,-277.98"/>
<polygon fill="#000000" stroke="#000000" points="984.37,-281.46 994.16,-277.4 983.97,-274.47 984.37,-281.46"/>
</g>
<!-- ransaclp__get_ransaclp_data_from_np_points -->
<g id="node30" class="node">
<title>ransaclp__get_ransaclp_data_from_np_points</title>
<ellipse fill="#cce0fe" fill-opacity="0.698039" stroke="black" cx="326.64" cy="-414" rx="185.02" ry="26.74"/>
<text text-anchor="middle" x="326.64" y="-417.8" font-family="Times,serif" font-size="14.00" fill="#000000">get_ransaclp_data_from_np_points</text>
<text text-anchor="middle" x="326.64" y="-402.8" font-family="Times,serif" font-size="14.00" fill="#000000">(ransaclp.py:565)</text>
</g>
<!-- ransaclp__get_ransaclp_data_from_np_points&#45;&gt;coreransaccuda__get_ransac_line_iteration_results_cuda -->
<g id="edge20" class="edge">
<title>ransaclp__get_ransaclp_data_from_np_points&#45;&gt;coreransaccuda__get_ransac_line_iteration_results_cuda</title>
<path fill="none" stroke="#000000" d="M456.13,-394.76C517.07,-393.3 585.87,-404.13 629.28,-450 696.33,-520.83 588.6,-818.75 657.28,-888 699.05,-930.11 838.25,-937.54 959.07,-935.31"/>
<polygon fill="#000000" stroke="#000000" points="959.29,-938.81 969.22,-935.1 959.15,-931.81 959.29,-938.81"/>
</g>
<!-- ransaclp__get_ransaclp_data_from_np_points&#45;&gt;crs__get_best_fitting_data_from_list_planes -->
<g id="edge17" class="edge">
<title>ransaclp__get_ransaclp_data_from_np_points&#45;&gt;crs__get_best_fitting_data_from_list_planes</title>
<path fill="none" stroke="#000000" d="M465.68,-396.21C523.4,-396.61 586.8,-408.58 629.28,-450 691.34,-510.51 593.83,-583.96 657.28,-643 700.4,-683.11 837.82,-690.84 957.58,-689.23"/>
<polygon fill="#000000" stroke="#000000" points="957.69,-692.73 967.64,-689.07 957.58,-685.73 957.69,-692.73"/>
</g>
<!-- ransaclp__get_ransaclp_data_from_np_points&#45;&gt;crs__get_ransac_line_iteration_results -->
<g id="edge18" class="edge">
<title>ransaclp__get_ransaclp_data_from_np_points&#45;&gt;crs__get_ransac_line_iteration_results</title>
<path fill="none" stroke="#000000" d="M461.06,-395.45C520.36,-394.97 586.32,-406.45 629.28,-450 670.87,-492.15 614.72,-673.83 657.28,-715 763.06,-817.32 947.39,-800 1060.01,-776.56"/>
<polygon fill="#000000" stroke="#000000" points="1060.96,-779.94 1070.01,-774.43 1059.5,-773.09 1060.96,-779.94"/>
</g>
<!-- ransaclp__get_ransaclp_data_from_np_points&#45;&gt;ransaclp__get_lines_and_number_inliers_from_ransac_data_from_file -->
<g id="edge19" class="edge">
<title>ransaclp__get_ransaclp_data_from_np_points&#45;&gt;ransaclp__get_lines_and_number_inliers_from_ransac_data_from_file</title>
<path fill="none" stroke="#000000" d="M471.13,-430.83C528.91,-437.31 596.22,-444.47 657.28,-450 736.74,-457.2 823.41,-463.87 901.9,-469.46"/>
<polygon fill="#000000" stroke="#000000" points="901.7,-472.95 911.93,-470.17 902.2,-465.97 901.7,-472.95"/>
</g>
<!-- ransaclp__get_ransaclp_data_from_np_points&#45;&gt;ransaclp__get_n_percentile_from_list_sse_plane -->
<g id="edge16" class="edge">
<title>ransaclp__get_ransaclp_data_from_np_points&#45;&gt;ransaclp__get_n_percentile_from_list_sse_plane</title>
<path fill="none" stroke="#000000" d="M512.09,-414C641.57,-414 814.88,-414 949.14,-414"/>
<polygon fill="#000000" stroke="#000000" points="949.15,-417.5 959.15,-414 949.15,-410.5 949.15,-417.5"/>
</g>
<!-- ransaclp__get_ransaclp_data_from_np_points&#45;&gt;ransaclp__get_ordered_list_sse_plane -->
<g id="edge14" class="edge">
<title>ransaclp__get_ransaclp_data_from_np_points&#45;&gt;ransaclp__get_ordered_list_sse_plane</title>
<path fill="none" stroke="#000000" d="M471.13,-397.17C528.91,-390.69 596.22,-383.53 657.28,-378 775.03,-367.33 908.63,-357.83 1007.96,-351.27"/>
<polygon fill="#000000" stroke="#000000" points="1008.32,-354.76 1018.07,-350.61 1007.87,-347.77 1008.32,-354.76"/>
</g>
<!-- ransaclp__get_ransaclp_data_from_np_points&#45;&gt;ransaclp__get_ransac_data_from_np_points -->
<g id="edge15" class="edge">
<title>ransaclp__get_ransaclp_data_from_np_points&#45;&gt;ransaclp__get_ransac_data_from_np_points</title>
<path fill="none" stroke="#000000" d="M495.94,-403.06C543.08,-407.77 591.66,-420.84 629.28,-450 656.42,-471.03 628.94,-502.61 657.28,-522 748.28,-584.25 1540.57,-538.53 1649.58,-522 1780.69,-502.12 1926.81,-450.1 2010.99,-417.03"/>
<polygon fill="#000000" stroke="#000000" points="2012.43,-420.22 2020.44,-413.29 2009.86,-413.71 2012.43,-420.22"/>
</g>
</g>
</svg>

